<!DOCTYPE svg  PUBLIC '-//W3C//DTD SVG 1.1//EN'  'http://www.w3.org/Graphics/SVG/1.1/DTD/svg11.dtd'>
<svg xmlns="http://www.w3.org/2000/svg" xml:space="preserve" height="283.46px" viewBox="0 0 283.464 283.464" width="283.46px" version="1.1" y="0px" x="0px" xmlns:xlink="http://www.w3.org/1999/xlink" enable-background="new 0 0 283.464 283.464">
	<path d="m93.016 143.42c3.161-39.472 30.581-71.67 48.554-72.555 19.552-3.798 50.919 39.894 50.097 74.1-0.809 33.67-15.877 62.264-49.582 62.264-32.09 0.01-51.868-30.94-49.074-63.8z" fill="#FAB97E"/>
	<path d="m98.823 148.4c2.788-34.813 26.971-63.21 42.823-63.991 17.245-3.35 44.909 35.185 44.184 65.352-0.713 29.697-14.004 54.916-43.73 54.916-28.3 0-45.74-27.3-43.277-56.28z" fill="#FDC99D"/>
		<path stroke="#fff" stroke-miterlimit="10" d="m150.47 164.08s-2.65 2.736-5.474 2.736c-2.822 0-3.677 0-5.645-1.367-1.967-1.369-7.184-5.816-11.888-3.678-4.704 2.137-10.178 5.73-9.665 13.342s4.105 13.342 11.803 16.764c7.697 3.42 16.593 3.678 23.435 1.197s13.172-8.553 13.599-16.678c0.428-8.125-3.249-9.066-5.645-11.375-5.05-3.6-10.53-0.94-10.53-0.94z" fill="#4975BA"/>
		<path stroke="#fff" stroke-miterlimit="10" d="m129.25 180.5s-0.086-1.283-1.369-1.369-2.309-0.172-3.678 1.797c-1.369 1.967-4.105 7.439-2.138 12.658 1.967 5.217 9.921 13.17 21.21 11.803 11.291-1.369 17.021-6.844 18.039-12.488 1.074-5.963-0.67-10.262-2.301-11.289-3.551-2.232-2.738-0.256-2.395 4.105 0.268 3.41-0.172 7.014-2.908 9.432-3.115 2.752-11.333 4.549-15.053 3.996-6.3-0.936-10.378-4.6-11.546-7.611-1.89-4.89 2.14-11.04 2.14-11.04z" fill="#BAC0C0"/>
		<path opacity=".5" d="m126.95 184.69s2.426-3.713 1.167-3.785c-1.258-0.07-2.265-0.141-3.607 1.488-1.341 1.631-4.026 6.166-2.097 10.49 1.93 4.322 9.73 10.912 20.803 9.779 11.071-1.135 16.691-5.67 17.689-10.348 1.054-4.941-0.656-8.504-2.256-9.354-3.482-1.852-0.076 3.232-0.14 6.861-0.085 4.898-3.646 6.035-6.329 8.039-3.056 2.281-10.122 3.023-13.77 2.566-6.179-0.775-10.571-4.432-11.717-6.928-1.84-4.05 0.27-8.81 0.27-8.81z" fill="#fff"/>
		<path d="m155.9 178.8s0-4.684-1.801-6.214-5.763-3.242-12.247-2.972c-6.483 0.271-9.275 0.99-10.176 2.702-0.9 1.711-1.98 3.527-0.99 6.086 0.99 2.558 8.014 5.53 13.238 5.53 5.12-0.01 10.81-1.36 11.98-5.14z" fill="#10375B"/>
			<path d="m142.8 174.74c-2.289-0.428-1.454-0.686-3.763-1.711-2.31-1.027-9.835 0.428-10.52 5.645s1.07 10.947 6.864 11.975c3.143 0.77 4.309-1.291 6.649-0.941s1.711 1.199 4.961 1.283c3.25 0.086 9.066-4.105 9.066-8.725 0-4.617-3.336-8.125-6.416-8.98-3.08-0.88-4.55 1.86-6.84 1.44z" fill="#E8EFF9"/>
			<path d="m142.15 175.51c-2.036-0.381-1.293-0.609-3.348-1.525-2.054-0.914-8.748 0.381-9.357 5.031s0.952 9.758 6.105 10.672c2.795 0.688 3.833-1.148 5.914-0.838 2.082 0.311 1.522 1.068 4.413 1.145 2.891 0.074 8.064-3.66 8.064-7.775 0-4.117-2.968-7.242-5.707-8.006-2.71-0.74-4.02 1.7-6.06 1.32z" fill="#fff"/>
		<g fill="#C72026">
			<path d="m134.56 183.4h-2.1v-2.895h2.012v0.361h-1.55v0.879h1.427v0.352h-1.427v0.945h1.638v0.36z"/>
			<path d="m137.35 183.14c-0.083 0.061-0.174 0.113-0.277 0.158-0.102 0.045-0.213 0.08-0.334 0.107-0.121 0.025-0.25 0.039-0.386 0.039-0.233 0-0.437-0.037-0.609-0.111s-0.316-0.178-0.43-0.311c-0.114-0.135-0.2-0.293-0.256-0.475-0.057-0.184-0.084-0.385-0.084-0.604 0-0.227 0.028-0.43 0.083-0.611s0.14-0.336 0.253-0.463c0.112-0.129 0.254-0.227 0.424-0.295 0.169-0.068 0.368-0.104 0.595-0.104 0.165 0 0.31 0.018 0.435 0.053 0.125 0.037 0.235 0.086 0.328 0.146 0.094 0.063 0.173 0.135 0.239 0.221 0.066 0.084 0.121 0.176 0.167 0.271l-0.416 0.15c-0.029-0.064-0.065-0.125-0.108-0.182-0.043-0.059-0.095-0.109-0.156-0.152-0.061-0.045-0.132-0.08-0.212-0.105-0.081-0.025-0.172-0.039-0.276-0.039-0.155 0-0.289 0.027-0.4 0.08s-0.204 0.129-0.276 0.225c-0.073 0.096-0.127 0.213-0.162 0.35-0.034 0.137-0.052 0.287-0.052 0.455 0 0.166 0.02 0.318 0.058 0.457 0.038 0.141 0.096 0.26 0.172 0.361 0.076 0.1 0.171 0.178 0.286 0.234 0.114 0.055 0.247 0.084 0.398 0.084 0.096 0 0.184-0.01 0.264-0.029 0.08-0.018 0.153-0.041 0.219-0.07 0.066-0.027 0.124-0.061 0.175-0.096 0.051-0.037 0.094-0.072 0.128-0.107v-0.502h-0.778v-0.344h1.202v1.016c-0.04 0.05-0.11 0.12-0.2 0.18z"/>
			<path d="m140.46 183.14c-0.083 0.061-0.174 0.113-0.277 0.158-0.102 0.045-0.213 0.08-0.334 0.107-0.121 0.025-0.25 0.039-0.386 0.039-0.233 0-0.437-0.037-0.609-0.111s-0.316-0.178-0.43-0.311c-0.114-0.135-0.2-0.293-0.256-0.475-0.057-0.184-0.084-0.385-0.084-0.604 0-0.227 0.028-0.43 0.083-0.611s0.14-0.336 0.253-0.463c0.112-0.129 0.254-0.227 0.424-0.295 0.169-0.068 0.368-0.104 0.595-0.104 0.165 0 0.31 0.018 0.435 0.053 0.125 0.037 0.235 0.086 0.328 0.146 0.094 0.063 0.173 0.135 0.239 0.221 0.066 0.084 0.121 0.176 0.167 0.271l-0.416 0.15c-0.029-0.064-0.065-0.125-0.108-0.182-0.043-0.059-0.095-0.109-0.156-0.152-0.061-0.045-0.132-0.08-0.212-0.105-0.081-0.025-0.172-0.039-0.276-0.039-0.155 0-0.289 0.027-0.4 0.08s-0.204 0.129-0.276 0.225c-0.073 0.096-0.127 0.213-0.162 0.35-0.034 0.137-0.052 0.287-0.052 0.455 0 0.166 0.02 0.318 0.058 0.457 0.038 0.141 0.096 0.26 0.172 0.361 0.076 0.1 0.171 0.178 0.286 0.234 0.114 0.055 0.247 0.084 0.398 0.084 0.096 0 0.184-0.01 0.264-0.029 0.08-0.018 0.153-0.041 0.219-0.07 0.066-0.027 0.124-0.061 0.175-0.096 0.051-0.037 0.094-0.072 0.128-0.107v-0.502h-0.778v-0.344h1.202v1.016c-0.03 0.05-0.11 0.12-0.19 0.18z"/>
			<path d="m143.9 182.9c-0.038 0.113-0.096 0.209-0.172 0.289s-0.17 0.141-0.283 0.184-0.243 0.064-0.391 0.064c-0.262 0-0.47-0.063-0.623-0.189-0.152-0.125-0.254-0.324-0.306-0.598l0.448-0.074c0.033 0.172 0.092 0.299 0.178 0.379 0.086 0.078 0.188 0.119 0.307 0.119 0.146 0 0.256-0.047 0.331-0.141 0.074-0.094 0.111-0.23 0.111-0.41v-1.65h-0.562v-0.369h1.02v2.016c-0.01 0.14-0.03 0.27-0.07 0.38z"/>
			<path d="m147.38 181.94c0 0.227-0.031 0.432-0.096 0.617-0.064 0.184-0.157 0.342-0.279 0.473-0.121 0.131-0.27 0.232-0.445 0.305-0.176 0.07-0.375 0.105-0.596 0.105-0.234 0-0.441-0.037-0.618-0.111s-0.325-0.178-0.442-0.311c-0.119-0.135-0.207-0.293-0.266-0.475-0.06-0.184-0.089-0.385-0.089-0.604 0-0.227 0.031-0.43 0.093-0.611 0.063-0.182 0.154-0.336 0.275-0.463 0.121-0.129 0.27-0.227 0.445-0.295 0.177-0.068 0.379-0.104 0.605-0.104s0.428 0.035 0.604 0.104c0.176 0.07 0.324 0.17 0.443 0.297 0.119 0.129 0.21 0.283 0.272 0.465 0.1 0.17 0.13 0.38 0.13 0.6zm-0.46 0c0-0.168-0.021-0.318-0.063-0.455s-0.102-0.254-0.181-0.35-0.179-0.172-0.296-0.225c-0.119-0.053-0.254-0.08-0.408-0.08-0.159 0-0.299 0.027-0.417 0.08s-0.218 0.129-0.298 0.225-0.139 0.213-0.179 0.35-0.06 0.287-0.06 0.455c0 0.166 0.021 0.318 0.062 0.457 0.041 0.141 0.102 0.26 0.181 0.361 0.08 0.1 0.179 0.178 0.297 0.234 0.118 0.055 0.255 0.084 0.41 0.084 0.166 0 0.309-0.029 0.429-0.086s0.219-0.137 0.296-0.236c0.078-0.102 0.135-0.221 0.172-0.359 0.04-0.1 0.06-0.26 0.06-0.42z"/>
			<path d="m150.23 183.14c-0.082 0.061-0.174 0.113-0.276 0.158s-0.214 0.08-0.334 0.107c-0.121 0.025-0.249 0.039-0.386 0.039-0.234 0-0.438-0.037-0.609-0.111s-0.316-0.178-0.43-0.311c-0.114-0.135-0.199-0.293-0.256-0.475-0.057-0.184-0.084-0.385-0.084-0.604 0-0.227 0.027-0.43 0.083-0.611s0.14-0.336 0.253-0.463c0.112-0.129 0.254-0.227 0.424-0.295s0.368-0.104 0.595-0.104c0.165 0 0.31 0.018 0.435 0.053 0.125 0.037 0.235 0.086 0.328 0.146 0.094 0.063 0.174 0.135 0.239 0.221 0.065 0.084 0.121 0.176 0.167 0.271l-0.416 0.15c-0.029-0.064-0.066-0.125-0.109-0.182-0.043-0.059-0.095-0.109-0.156-0.152-0.061-0.045-0.131-0.08-0.211-0.105-0.081-0.025-0.173-0.039-0.276-0.039-0.155 0-0.288 0.027-0.399 0.08s-0.204 0.129-0.277 0.225c-0.072 0.096-0.127 0.213-0.161 0.35s-0.052 0.287-0.052 0.455c0 0.166 0.02 0.318 0.059 0.457 0.037 0.141 0.096 0.26 0.172 0.361 0.076 0.1 0.171 0.178 0.285 0.234 0.114 0.055 0.246 0.084 0.398 0.084 0.096 0 0.184-0.01 0.264-0.029 0.08-0.018 0.152-0.041 0.219-0.07 0.065-0.027 0.123-0.061 0.175-0.096 0.052-0.037 0.094-0.072 0.128-0.107v-0.502h-0.777v-0.344h1.201v1.016c-0.05 0.05-0.12 0.12-0.2 0.18z"/>
		</g>
	<path stroke="#000" stroke-miterlimit="10" d="m120.54 149.48c0-3.754 3.044-6.798 6.799-6.798s6.799 3.044 6.799 6.798" fill="none"/>
	<path stroke="#000" stroke-miterlimit="10" d="m152.78 149.48c0-3.754 3.044-6.798 6.799-6.798s6.798 3.044 6.798 6.798" fill="none"/>
	<path stroke="#000" stroke-miterlimit="10" d="m189.08 172.43s-5.842 1.822-1.826-5.848c4.015-7.67 13.289-7.035 16.893-5.748s-15.06 11.6-15.06 11.6z" fill="#fff"/>
	<path stroke="#000" stroke-miterlimit="10" d="m95.357 177.66s5.842 1.822 1.826-5.847c-4.015-7.671-13.29-7.036-16.893-5.748-3.604 1.29 15.067 11.6 15.067 11.6z" fill="#fff"/>
	<path stroke="#000" stroke-miterlimit="10" d="m115.56 198.79s7.445 0.459 8.243 2.753-2.472 6.587-2.418 9.381-0.622 4.942-3.615 4.513-17.392-3.438-17.606-6.232c-0.215-2.793 5.802-5.613 9.241-4.525s6.17-5.89 6.17-5.89z" fill="#fff"/>
	<path stroke="#000" stroke-miterlimit="10" d="m171.5 196.32s-7.445 0.46-8.243 2.754c-0.798 2.293 2.472 6.586 2.418 9.381-0.054 2.793 0.622 4.942 3.615 4.513s17.392-3.438 17.606-6.232-5.803-5.614-9.24-4.526c-3.45 1.1-6.17-5.88-6.17-5.88z" fill="#fff"/>
</svg>
