<!DOCTYPE svg  PUBLIC '-//W3C//DTD SVG 1.1//EN'  'http://www.w3.org/Graphics/SVG/1.1/DTD/svg11.dtd'>
<svg xmlns="http://www.w3.org/2000/svg" xml:space="preserve" height="157.14px" viewBox="0 0 140 157.143" width="140px" version="1.1" y="0px" x="0px" xmlns:xlink="http://www.w3.org/1999/xlink" enable-background="new 0 0 140 157.143">
	<path d="m20.799 79.901c3.161-39.472 30.581-71.67 48.555-72.555 19.552-3.798 50.919 39.894 50.097 74.1-0.809 33.67-15.877 62.264-49.582 62.264-32.088 0-51.862-30.95-49.069-63.809z" fill="#FAB97E"/>
	<path d="m26.607 84.878c2.788-34.813 26.971-63.21 42.823-63.991 17.245-3.35 44.909 35.185 44.184 65.352-0.713 29.697-14.004 54.916-43.73 54.916-28.296 0-45.736-27.3-43.273-56.282z" fill="#FDC99D"/>
		<path stroke="#fff" stroke-miterlimit="10" d="m78.255 100.55s-2.65 2.736-5.474 2.736c-2.822 0-3.677 0-5.645-1.367-1.967-1.369-7.184-5.816-11.888-3.678-4.704 2.137-10.178 5.73-9.665 13.342s4.105 13.342 11.803 16.764c7.697 3.42 16.593 3.678 23.435 1.197s13.172-8.553 13.599-16.678c0.428-8.125-3.249-9.066-5.645-11.375-5.046-3.579-10.52-0.93-10.52-0.93z" fill="#4975BA"/>
		<path stroke="#fff" stroke-miterlimit="10" d="m57.038 116.98s-0.086-1.283-1.369-1.369-2.309-0.172-3.678 1.797c-1.369 1.967-4.105 7.439-2.138 12.658 1.967 5.217 9.921 13.17 21.21 11.803 11.291-1.369 17.021-6.844 18.039-12.488 1.074-5.963-0.67-10.262-2.301-11.289-3.551-2.232-2.738-0.256-2.395 4.105 0.268 3.41-0.172 7.014-2.908 9.432-3.115 2.752-11.333 4.549-15.053 3.996-6.3-0.936-10.378-4.6-11.546-7.611-1.892-4.89 2.139-11.04 2.139-11.04z" fill="#BAC0C0"/>
		<path opacity=".5" d="m54.735 121.16s2.426-3.713 1.167-3.785c-1.258-0.07-2.265-0.141-3.607 1.488-1.341 1.631-4.026 6.166-2.097 10.49 1.93 4.322 9.73 10.912 20.803 9.779 11.071-1.135 16.691-5.67 17.689-10.348 1.054-4.941-0.656-8.504-2.256-9.354-3.482-1.852-0.076 3.232-0.14 6.861-0.085 4.898-3.646 6.035-6.329 8.039-3.056 2.281-10.122 3.023-13.77 2.566-6.179-0.775-10.571-4.432-11.717-6.928-1.856-4.05 0.257-8.82 0.257-8.82z" fill="#fff"/>
		<path d="m83.68 115.28s0-4.684-1.801-6.214-5.763-3.242-12.247-2.972c-6.483 0.271-9.275 0.99-10.176 2.702-0.9 1.711-1.98 3.527-0.99 6.086 0.99 2.558 8.014 5.53 13.238 5.53 5.123-0.01 10.806-1.36 11.976-5.14z" fill="#10375B"/>
			<path d="m70.585 111.21c-2.289-0.428-1.454-0.686-3.763-1.711-2.31-1.027-9.835 0.428-10.52 5.645s1.07 10.947 6.864 11.975c3.143 0.77 4.309-1.291 6.649-0.941s1.711 1.199 4.961 1.283c3.25 0.086 9.066-4.105 9.066-8.725 0-4.617-3.336-8.125-6.416-8.98-3.077-0.86-4.552 1.88-6.841 1.45z" fill="#E8EFF9"/>
			<path d="m69.935 111.99c-2.036-0.381-1.293-0.609-3.348-1.525-2.054-0.914-8.748 0.381-9.357 5.031s0.952 9.758 6.105 10.672c2.795 0.688 3.833-1.148 5.914-0.838 2.082 0.311 1.522 1.068 4.413 1.145 2.891 0.074 8.064-3.66 8.064-7.775 0-4.117-2.968-7.242-5.707-8.006-2.737-0.74-4.047 1.7-6.084 1.32z" fill="#fff"/>
		<text font-size="4.0755" font-family="&apos;Kalinga-Bold&apos;" transform="translate(59.867 119.88)" fill="#C72026">EGG JOG</text>
	<path stroke="#000" stroke-miterlimit="10" d="m48.328 85.958c0-3.754 3.044-6.798 6.799-6.798s6.799 3.044 6.799 6.798" fill="none"/>
	<path stroke="#000" stroke-miterlimit="10" d="m80.561 85.958c0-3.754 3.044-6.798 6.799-6.798s6.798 3.044 6.798 6.798" fill="none"/>
	<path stroke="#000" stroke-miterlimit="10" d="m116.86 108.91s-5.842 1.822-1.826-5.848c4.015-7.67 13.289-7.035 16.893-5.748s-15.06 11.598-15.06 11.598z" fill="#fff"/>
	<path stroke="#000" stroke-miterlimit="10" d="m23.141 114.14s5.842 1.822 1.826-5.847c-4.015-7.671-13.29-7.036-16.893-5.748-3.604 1.29 15.067 11.6 15.067 11.6z" fill="#fff"/>
	<path stroke="#000" stroke-miterlimit="10" d="m43.34 135.27s7.445 0.459 8.243 2.753-2.472 6.587-2.418 9.381-0.622 4.942-3.615 4.513-17.392-3.438-17.606-6.232c-0.215-2.793 5.802-5.613 9.241-4.525s6.155-5.89 6.155-5.89z" fill="#fff"/>
	<path stroke="#000" stroke-miterlimit="10" d="m99.288 132.8s-7.445 0.46-8.243 2.754c-0.798 2.293 2.472 6.586 2.418 9.381-0.054 2.793 0.622 4.942 3.615 4.513s17.392-3.438 17.606-6.232-5.803-5.614-9.24-4.526c-3.44 1.1-6.152-5.88-6.152-5.88z" fill="#fff"/>
</svg>
