<?xml version="1.0" encoding="utf-8"?>
<!-- Generator: Adobe Illustrator 16.0.0, SVG Export Plug-In . SVG Version: 6.00 Build 0)  -->
<!DOCTYPE svg PUBLIC "-//W3C//DTD SVG 1.1//EN" "http://www.w3.org/Graphics/SVG/1.1/DTD/svg11.dtd">
<svg version="1.1" id="Layer_1" xmlns="http://www.w3.org/2000/svg" xmlns:xlink="http://www.w3.org/1999/xlink" x="0px" y="0px"
	 width="140px" height="157.143px" viewBox="0 0 140 157.143" enable-background="new 0 0 140 157.143" xml:space="preserve">
<g>
	<path fill="#FAB97E" d="M20.799,79.901C23.96,40.429,51.38,8.231,69.354,7.346c19.552-3.798,50.919,39.894,50.097,74.1
		c-0.809,33.67-15.877,62.264-49.582,62.264C37.78,143.71,18.006,112.759,20.799,79.901z"/>
	<path fill="#FDC99D" d="M26.607,84.878c2.788-34.813,26.971-63.21,42.823-63.991c17.245-3.35,44.909,35.185,44.184,65.352
		c-0.713,29.697-14.004,54.916-43.73,54.916C41.584,141.155,24.144,113.856,26.607,84.878z"/>
	<g>
		<path fill="#4975BA" stroke="#FFFFFF" stroke-miterlimit="10" d="M78.255,100.554c0,0-2.65,2.736-5.474,2.736
			c-2.822,0-3.677,0-5.645-1.367c-1.967-1.369-7.184-5.816-11.888-3.678c-4.704,2.137-10.178,5.73-9.665,13.342
			s4.105,13.342,11.803,16.764c7.697,3.42,16.593,3.678,23.435,1.197s13.172-8.553,13.599-16.678
			c0.428-8.125-3.249-9.066-5.645-11.375C83.729,97.901,78.255,100.554,78.255,100.554z"/>
		<path fill="#BAC0C0" stroke="#FFFFFF" stroke-miterlimit="10" d="M57.038,116.976c0,0-0.086-1.283-1.369-1.369
			s-2.309-0.172-3.678,1.797c-1.369,1.967-4.105,7.439-2.138,12.658c1.967,5.217,9.921,13.17,21.21,11.803
			c11.291-1.369,17.021-6.844,18.039-12.488c1.074-5.963-0.67-10.262-2.301-11.289c-3.551-2.232-2.738-0.256-2.395,4.105
			c0.268,3.41-0.172,7.014-2.908,9.432c-3.115,2.752-11.333,4.549-15.053,3.996c-6.3-0.936-10.378-4.6-11.546-7.611
			C53.007,123.128,57.038,116.976,57.038,116.976z"/>
		<path opacity="0.5" fill="#FFFFFF" d="M54.735,121.165c0,0,2.426-3.713,1.167-3.785c-1.258-0.07-2.265-0.141-3.607,1.488
			c-1.341,1.631-4.026,6.166-2.097,10.49c1.93,4.322,9.73,10.912,20.803,9.779c11.071-1.135,16.691-5.67,17.689-10.348
			c1.054-4.941-0.656-8.504-2.256-9.354c-3.482-1.852-0.076,3.232-0.14,6.861c-0.085,4.898-3.646,6.035-6.329,8.039
			c-3.056,2.281-10.122,3.023-13.77,2.566c-6.179-0.775-10.571-4.432-11.717-6.928C52.622,125.931,54.735,121.165,54.735,121.165z"
			/>
		<path fill="#10375B" d="M83.68,115.276c0,0,0-4.684-1.801-6.214s-5.763-3.242-12.247-2.972c-6.483,0.271-9.275,0.99-10.176,2.702
			c-0.9,1.711-1.98,3.527-0.99,6.086c0.99,2.558,8.014,5.53,13.238,5.53C76.827,120.409,82.51,119.058,83.68,115.276z"/>
		<g>
			<path fill="#E8EFF9" d="M70.585,111.214c-2.289-0.428-1.454-0.686-3.763-1.711c-2.31-1.027-9.835,0.428-10.52,5.645
				s1.07,10.947,6.864,11.975c3.143,0.77,4.309-1.291,6.649-0.941c2.34,0.35,1.711,1.199,4.961,1.283
				c3.25,0.086,9.066-4.105,9.066-8.725c0-4.617-3.336-8.125-6.416-8.98C74.349,108.903,72.874,111.642,70.585,111.214z"/>
			<path fill="#FFFFFF" d="M69.935,111.987c-2.036-0.381-1.293-0.609-3.348-1.525c-2.054-0.914-8.748,0.381-9.357,5.031
				s0.952,9.758,6.105,10.672c2.795,0.688,3.833-1.148,5.914-0.838c2.082,0.311,1.522,1.068,4.413,1.145
				c2.891,0.074,8.064-3.66,8.064-7.775c0-4.117-2.968-7.242-5.707-8.006C73.282,109.929,71.972,112.368,69.935,111.987z"/>
		</g>
		<text transform="matrix(1 0 0 1 59.8672 119.8799)" fill="#C72026" font-family="'Kalinga-Bold'" font-size="4.0755">EGG JOG</text>
	</g>
	<path fill="none" stroke="#000000" stroke-miterlimit="10" d="M48.328,85.958c0-3.754,3.044-6.798,6.799-6.798
		s6.799,3.044,6.799,6.798"/>
	<path fill="none" stroke="#000000" stroke-miterlimit="10" d="M80.561,85.958c0-3.754,3.044-6.798,6.799-6.798
		s6.798,3.044,6.798,6.798"/>
	<path fill="#FFFFFF" stroke="#000000" stroke-miterlimit="10" d="M116.864,108.909c0,0-5.842,1.822-1.826-5.848
		c4.015-7.67,13.289-7.035,16.893-5.748S116.864,108.909,116.864,108.909z"/>
	<path fill="#FFFFFF" stroke="#000000" stroke-miterlimit="10" d="M23.141,114.141c0,0,5.842,1.822,1.826-5.847
		c-4.015-7.671-13.29-7.036-16.893-5.748C4.47,103.833,23.141,114.141,23.141,114.141z"/>
	<path fill="#FFFFFF" stroke="#000000" stroke-miterlimit="10" d="M43.34,135.267c0,0,7.445,0.459,8.243,2.753
		s-2.472,6.587-2.418,9.381s-0.622,4.942-3.615,4.513s-17.392-3.438-17.606-6.232c-0.215-2.793,5.802-5.613,9.241-4.525
		S43.34,135.267,43.34,135.267z"/>
	<path fill="#FFFFFF" stroke="#000000" stroke-miterlimit="10" d="M99.288,132.804c0,0-7.445,0.46-8.243,2.754
		c-0.798,2.293,2.472,6.586,2.418,9.381c-0.054,2.793,0.622,4.942,3.615,4.513s17.392-3.438,17.606-6.232s-5.803-5.614-9.24-4.526
		C102.005,139.78,99.288,132.804,99.288,132.804z"/>
</g>
</svg>
