<!DOCTYPE svg  PUBLIC '-//W3C//DTD SVG 1.1//EN'  'http://www.w3.org/Graphics/SVG/1.1/DTD/svg11.dtd'>
<svg xmlns="http://www.w3.org/2000/svg" xml:space="preserve" height="177.14px" viewBox="0 0 140 177.143" width="140px" version="1.1" y="0px" x="0px" xmlns:xlink="http://www.w3.org/1999/xlink" enable-background="new 0 0 140 177.143">
	<g stroke="#000" stroke-miterlimit="10" fill="#fff">
		<path d="m88.769 139s3.469 1.772 6.148 5.071c2.049 3.179 1.829 7.01 0.196 9.408-1.633 2.397-7.222 9.482 0.547 9.507s12.577-2.771 12.577-2.771"/>
		<path d="m47.727 136.08s0.903 3.788 0.132 7.97c-1.088 3.621-4.146 5.941-7.029 6.256-2.884 0.313-11.901 0.66-6.878 6.586 5.024 5.925 10.271 7.77 10.271 7.77"/>
	</g>
	<path d="m21.491 80.902c3.161-39.472 30.58-71.67 48.554-72.555 19.552-3.798 50.919 39.894 50.097 74.1-0.809 33.671-15.877 62.263-49.582 62.263-32.086 0-51.861-30.95-49.067-63.808z" fill="#EE9255"/>
	<path d="m27.298 85.879c2.788-34.813 26.971-63.21 42.823-63.991 17.245-3.35 44.909 35.185 44.184 65.353-0.713 29.696-14.004 54.915-43.73 54.915-28.295 0-45.735-27.3-43.272-56.281z" fill="#FBB47D"/>
	<path d="m24 81.919s16.596 25.443 46.485 25.969 47.848-25.302 47.848-25.302 0.042 38.683-24.708 53.755-49.882 2.839-58.347-9.843c-13.671-20.49-11.275-44.581-11.275-44.581z" fill="#fff"/>
	<path d="m94.667 99.237" fill="#EDA569"/>
	<g fill="#ED1F24">
		<path d="m67.72 119.05s-4.75-8-5.75-8.25 1-4.75 2.875-4 10.125-1.668 11.875-0.084 3.75 2.084 3.75 2.084-5.75 3.75-6.25 6.25-1 5.25-1 5.25l-5.5-1.25z"/>
		<path d="m67.024 119.29s6.545 0.819 6.942 1.447 4.166 33.357 5.158 35.936c0.991 2.578-8.037 13.289-8.037 13.289s-9.151-10.909-9.384-12.694 5.321-37.99 5.321-37.99z"/>
	</g>
	<path stroke="#969696" stroke-miterlimit="10" d="m62.142 107.92s-21.873-8.258-22.509-9.712c-0.636-1.453 10.559 27.435 10.559 27.435l11.95-17.72z" fill="#fff"/>
	<path stroke="#969696" stroke-miterlimit="10" d="m90.81 126.43l-11.838-19.265s21.58-7.427 22.273-8.854c0.7-1.42-10.43 28.124-10.43 28.124z" fill="#fff"/>
	<g fill="#F26865">
		<path d="m67.879 117.8s-3.808-6.158-4.609-6.351 0.802-3.655 2.305-3.079c1.503 0.578 8.117-1.283 9.521-0.064 1.402 1.22 3.006 1.604 3.006 1.604s-4.609 2.887-5.011 4.811-0.802 4.041-0.802 4.041l-4.41-0.96z"/>
		<path d="m68.166 119.84s3.718 0.742 3.944 1.311 2.366 30.209 2.929 32.543c0.564 2.335-4.565 12.035-4.565 12.035s-5.198-9.879-5.331-11.496 3.023-34.38 3.023-34.38z"/>
	</g>
	<ellipse cy="82.586" cx="54.833" rx="1.834" ry="2.986"/>
	<ellipse cy="82.586" cx="86" rx="1.833" ry="2.986"/>
	<path stroke="#000" stroke-miterlimit="10" d="m22.476 103.81s-17.476 6.988-13.143 9.041c2.672 1.267 9.047 0.753 13.895 0.889 3.011 0.085 5.432 0.42 6.009 1.588 1.508 3.047 2.708 8.909 0 10.312-7.082 3.667-12.292-0.851-9.45-5.354l3.441-6.546" fill="#fff"/>
	<path stroke="#000" stroke-miterlimit="10" d="m117.96 105.65s17.14 7.774 12.719 9.628c-2.728 1.145-9.072 0.342-13.921 0.258-3.012-0.052-5.445 0.173-6.075 1.313-1.646 2.976-3.11 8.777-0.468 10.302 6.907 3.985 12.316-0.292 9.684-4.919l-3.141-6.695" fill="#fff"/>
</svg>
