<!DOCTYPE svg  PUBLIC '-//W3C//DTD SVG 1.1//EN'  'http://www.w3.org/Graphics/SVG/1.1/DTD/svg11.dtd'>
<svg xmlns="http://www.w3.org/2000/svg" xml:space="preserve" height="283.46px" viewBox="0 0 283.464 283.464" width="283.46px" version="1.1" y="0px" x="0px" xmlns:xlink="http://www.w3.org/1999/xlink" enable-background="new 0 0 283.464 283.464">
	<path stroke="#000" stroke-miterlimit="10" d="m98.005 159.05s-10.625 3.972-11.428 8.078c-0.803 4.105 10.166 5.307 12.713 8.083 4.275 4.66-1.756 13.736-7.19 10.713-4.137-2.304-4.791-4.567-3.133-7.194 1.657-2.629 5.786-0.543 6.375 0.112" fill="none"/>
	<path stroke="#000" stroke-miterlimit="10" d="m185.96 158.02s10.625 3.972 11.428 8.078c0.803 4.105-10.166 5.307-12.713 8.083-4.275 4.66 1.756 13.736 7.189 10.713 4.137-2.304 4.791-4.567 3.133-7.194-1.656-2.629-5.785-0.543-6.374 0.112" fill="none"/>
	<g stroke="#000" stroke-miterlimit="10" fill="#fff">
		<path d="m160.77 194.43s3.469 1.771 6.148 5.071c2.049 3.179 1.83 7.01 0.197 9.407-1.633 2.398-7.222 9.482 0.547 9.508 7.768 0.023 12.576-2.771 12.576-2.771"/>
		<path d="m119.73 191.51s0.903 3.788 0.132 7.969c-1.088 3.621-4.146 5.941-7.029 6.256-2.884 0.314-11.901 0.66-6.878 6.586 5.024 5.926 10.271 7.77 10.271 7.77"/>
	</g>
	<path d="m93.491 136.33c3.161-39.473 30.581-71.67 48.554-72.556 19.551-3.798 50.918 39.894 50.097 74.1-0.809 33.671-15.878 62.264-49.583 62.264-32.09 0.01-51.863-30.94-49.069-63.8z" fill="#EE9255"/>
	<path d="m99.298 141.31c2.788-34.813 26.971-63.21 42.823-63.991 17.244-3.35 44.908 35.185 44.184 65.353-0.713 29.696-14.004 54.915-43.73 54.915-28.29 0-45.735-27.29-43.272-56.27z" fill="#FBB47D"/>
	<path d="m96 137.35s16.596 25.444 46.485 25.969c29.89 0.525 47.848-25.303 47.848-25.303s0.042 38.684-24.708 53.756c-24.75 15.072-49.883 2.838-58.347-9.844-13.666-20.5-11.27-44.59-11.27-44.59z" fill="#fff"/>
	<path d="m166.67 154.67" fill="#EDA569"/>
	<g fill="#ED1F24">
		<path d="m139.72 174.48s-4.75-8-5.75-8.25 1-4.75 2.875-4 10.125-1.668 11.875-0.084 3.75 2.084 3.75 2.084-5.75 3.75-6.25 6.25-1 5.25-1 5.25l-5.5-1.25z"/>
		<path d="m139.02 174.72s6.545 0.818 6.942 1.447c0.397 0.628 4.165 33.357 5.157 35.936s-8.037 13.289-8.037 13.289-9.15-10.91-9.383-12.695 5.32-37.98 5.32-37.98z"/>
	</g>
	<path stroke="#969696" stroke-miterlimit="10" d="m134.14 163.35s-21.873-8.258-22.509-9.712 10.559 27.435 10.559 27.435l11.95-17.73z" fill="#fff"/>
	<path stroke="#969696" stroke-miterlimit="10" d="m162.81 181.86l-11.838-19.265s21.581-7.428 22.273-8.855c0.7-1.42-10.43 28.12-10.43 28.12z" fill="#fff"/>
	<g fill="#F26865">
		<path d="m139.88 173.22s-3.808-6.157-4.609-6.35c-0.802-0.193 0.802-3.656 2.305-3.079s8.118-1.284 9.52-0.064 3.006 1.604 3.006 1.604-4.609 2.887-5.01 4.811c-0.401 1.924-0.803 4.041-0.803 4.041l-4.42-0.96z"/>
		<path d="m140.17 175.27s3.718 0.742 3.944 1.312c0.225 0.568 2.365 30.208 2.929 32.543s-4.565 12.034-4.565 12.034-5.198-9.879-5.331-11.496c-0.14-1.61 3.02-34.38 3.02-34.38z"/>
	</g>
	<ellipse cy="138.01" cx="126.83" rx="1.834" ry="2.986"/>
	<ellipse cy="138.01" cx="158" rx="1.833" ry="2.986"/>
</svg>
