<!DOCTYPE svg  PUBLIC '-//W3C//DTD SVG 1.1//EN'  'http://www.w3.org/Graphics/SVG/1.1/DTD/svg11.dtd'>
<svg xmlns="http://www.w3.org/2000/svg" xml:space="preserve" height="177.14px" viewBox="0 0 140 177.143" width="140px" version="1.1" y="0px" x="0px" xmlns:xlink="http://www.w3.org/1999/xlink" enable-background="new 0 0 140 177.143">
	<path stroke="#000" stroke-miterlimit="10" d="m93.745 142.93s32.007 5.058 23.076 9.007c-8.93 3.949-27.168-0.333-28.584 0s1.951-0.102 2.602 3.949c0.648 4.051-16.498-6.479-16.498-6.479" fill="none"/>
	<path stroke="#000" stroke-miterlimit="10" d="m45.077 142.99s-32.006 5.059-23.077 9.008 27.168-0.334 28.584 0c1.416 0.333-1.951-0.102-2.601 3.949s16.497-6.479 16.497-6.479" fill="none"/>
	<g stroke="#000" stroke-miterlimit="10">
		<path d="m121.49 129.13s-2.375 3.385-7.569 3.285c-5.193-0.101-8.935-2.62-8.935-2.62" fill="none"/>
		<path d="m127.24 129.66c-4.674 0.896-13.696-2.506-10.058-10.869 3.167-6.008 5.874-4.017 6.288-2.833s-2.232 3.186-2.088 5.659c0.145 2.475 5.328 3.299 5.682-0.353s-3.652-6.479-3.299-8.835c0.354-2.356 4.533-0.744 5.42-0.118 3.84 2.7 8.49 15.34-1.94 17.34z" fill="#fff"/>
	</g>
	<g stroke="#000" stroke-miterlimit="10">
		<path d="m19.367 132.42s2.375 3.385 7.569 3.284 8.935-2.62 8.935-2.62" fill="none"/>
		<path d="m13.616 132.95c4.674 0.896 13.695-2.506 10.057-10.87-3.167-6.008-5.874-4.017-6.288-2.833s2.231 3.186 2.087 5.66-5.327 3.299-5.681-0.354c-0.354-3.651 3.651-6.479 3.298-8.835s-4.532-0.743-5.419-0.118c-3.838 2.71-8.481 15.35 1.946 17.35z" fill="#fff"/>
	</g>
	<path d="m20.629 86.331c3.161-39.473 30.581-71.67 48.554-72.556 19.552-3.798 50.918 39.894 50.097 74.1-0.809 33.671-15.878 62.264-49.583 62.264-32.087 0-51.862-30.95-49.068-63.809z" fill="#CC6828"/>
	<path d="m26.437 91.307c2.788-34.813 26.971-63.21 42.823-63.991 17.244-3.35 44.909 35.185 44.185 65.353-0.714 29.696-14.005 54.915-43.731 54.915-28.295 0-45.736-27.29-43.272-56.273z" fill="#F58941"/>
	<path stroke="#000" stroke-miterlimit="10" d="m80.411 105.01s2.328-9.327 17.107-9.327" fill="none"/>
	<path stroke="#000" stroke-miterlimit="10" d="m59.138 105.01s-2.329-9.327-17.108-9.327" fill="none"/>
		<path d="m65.507 88.649s2.052 3.258-2.033 4.973c-4.085 1.716-22.351-0.916-24.008-1.594-1.658-0.678-9.038-28.883-8.255-29.486 1.808-1.394 8.703 14.194 10.757 17.452 2.053 3.258 23.539 8.655 23.539 8.655z" fill="#C8C8C8"/>
		<path d="m55.214 89.367s11.317 2.231 8.937 3.23-23.146-0.866-24.112-1.262c-0.966-0.395-8.989-25.729-8.533-26.081 1.053-0.813 8.794 17.169 9.991 19.068s13.717 5.045 13.717 5.045z" fill="#fff"/>
		<ellipse cy="146.78" cx="68.685" rx="11.782" ry="19.431" fill="#C8C8C8"/>
		<ellipse cy="144.78" cx="68.719" rx="10.636" ry="19.431" fill="#fff"/>
		<path d="m77.167 152.09c-0.721 6.032-7.034 11.235-10.575 9.411-3.541-1.825-7.958-10.947-6.422-19.014s3.361 4.647 3.361 4.647 1.44-6.856 1.44-8.873 1.321 7.778 1.621 9.315c0.3 1.535 2.7-8.035 2.604-9.588s1.537 11.567 1.537 11.567 2.496-0.192 2.496-4.783 0.674 1.843 1.057 3.476c0.385 1.633 2.881-6.627 2.881-6.627s0.721 4.43 0 10.46z" fill="#C8C8C8"/>
		<path d="m69.877 118.88s9.377-3.383 15.961 4.117 17.978 30.835 19.478 32.789-7.456 2.21-10.926-2.29-5.471-23.324-10.971-25.662-10.115-2.34-12.057-4.84c-1.943-2.5-1.489-4.12-1.489-4.12z" fill="#C8C8C8"/>
		<path d="m69.877 116.56s9.377-3.384 15.961 4.116 15.535 32.238 17.035 34.192-5.01 0.808-8.48-3.692-5.471-23.324-10.971-25.662-10.115-2.338-12.057-4.838c-1.939-2.5-1.485-4.12-1.485-4.12z" fill="#fff"/>
		<path d="m66.368 119.04s-9.378-3.384-15.962 4.116-17.977 30.835-19.477 32.79c-1.5 1.953 7.453 2.21 10.922-2.29 3.471-4.5 5.471-23.324 10.971-25.662s10.116-2.338 12.058-4.838c1.942-2.5 1.488-4.12 1.488-4.12z" fill="#C8C8C8"/>
		<path d="m66.368 116.72s-9.378-3.385-15.962 4.115-15.534 32.238-17.034 34.193c-1.5 1.953 5.01 0.807 8.479-3.693 3.471-4.5 5.471-23.324 10.971-25.662s10.116-2.338 12.058-4.838c1.942-2.5 1.488-4.12 1.488-4.12z" fill="#fff"/>
		<path d="m74.856 88.649s-2.052 3.258 2.033 4.973c4.085 1.716 22.352-0.916 24.008-1.594 1.658-0.678 9.038-28.883 8.256-29.486-1.809-1.394-8.703 14.194-10.757 17.452-2.06 3.258-23.547 8.655-23.547 8.655z" fill="#C8C8C8"/>
		<path d="m85.149 89.367s-11.316 2.231-8.937 3.23 23.146-0.866 24.112-1.262c0.966-0.395 8.988-25.729 8.533-26.081-1.054-0.813-8.795 17.169-9.991 19.068s-13.71 5.045-13.71 5.045z" fill="#fff"/>
</svg>
