<!DOCTYPE svg  PUBLIC '-//W3C//DTD SVG 1.1//EN'  'http://www.w3.org/Graphics/SVG/1.1/DTD/svg11.dtd'>
<svg xmlns="http://www.w3.org/2000/svg" xml:space="preserve" height="283.46px" viewBox="0 0 283.464 283.464" width="283.46px" version="1.1" y="0px" x="0px" xmlns:xlink="http://www.w3.org/1999/xlink" enable-background="new 0 0 283.464 283.464">
	<path stroke="#000" stroke-miterlimit="10" d="m108.7 183.09s-16.129 7.381-22.828 0.889c-6.698-6.493-0.273-14.148 5.468-10.662 2.819 1.711 3.45 8.533-2.871 9.773-10.457 2.051-10.936-11.37-10.936-11.37" fill="none"/>
	<path stroke="#000" stroke-miterlimit="10" d="m74.036 176.71s5.528 5.686 9.552 6.104-6.927 1.271-9.552-0.854" fill="none"/>
	<path stroke="#000" stroke-miterlimit="10" d="m174.71 184.64s16.13 7.381 22.827 0.888c6.699-6.492 0.273-14.147-5.467-10.662-2.82 1.713-3.451 8.535 2.871 9.774 10.457 2.05 10.936-11.37 10.936-11.37" fill="none"/>
	<path stroke="#000" stroke-miterlimit="10" d="m209.38 178.25s-5.529 5.684-9.553 6.102 6.928 1.273 9.553-0.852" fill="none"/>
	<path stroke="#000" stroke-miterlimit="10" d="m163.87 197.7s25.389 4.051 16.459 8c-8.929 3.949-20.549 0.674-21.965 1.007s-3.601 8.759 11.346 9.874" fill="none"/>
	<path stroke="#000" stroke-miterlimit="10" d="m116.08 197.99s-25.388 4.051-16.459 8 20.55 0.674 21.966 1.008c1.416 0.333 3.6 8.758-11.346 9.873" fill="none"/>
	<path d="m91.629 141.33c3.161-39.473 30.581-71.67 48.554-72.556 19.552-3.798 50.919 39.894 50.097 74.1-0.809 33.671-15.877 62.264-49.582 62.264-32.09 0.01-51.865-30.94-49.071-63.8z" fill="#CC6828"/>
	<path d="m97.437 146.31c2.788-34.813 26.971-63.21 42.823-63.991 17.245-3.35 44.909 35.185 44.184 65.353-0.713 29.696-14.004 54.915-43.73 54.915-28.3 0-45.737-27.29-43.273-56.27z" fill="#F58941"/>
	<path stroke="#000" stroke-miterlimit="10" d="m151.41 160.01s2.329-9.327 17.108-9.327" fill="none"/>
	<path stroke="#000" stroke-miterlimit="10" d="m130.14 160.01s-2.329-9.327-17.108-9.327" fill="none"/>
		<path d="m136.51 143.65s2.052 3.258-2.033 4.973c-4.085 1.716-22.351-0.916-24.008-1.594-1.658-0.678-9.038-28.883-8.255-29.486 1.808-1.394 8.703 14.194 10.757 17.452 2.04 3.26 23.53 8.66 23.53 8.66z" fill="#C8C8C8"/>
		<path d="m126.21 144.37s11.317 2.231 8.937 3.23-23.146-0.866-24.112-1.262c-0.966-0.395-8.989-25.729-8.533-26.081 1.053-0.813 8.794 17.169 9.991 19.068s13.71 5.04 13.71 5.04z" fill="#fff"/>
		<ellipse cy="201.78" cx="139.68" rx="11.782" ry="19.431" fill="#C8C8C8"/>
		<ellipse cy="199.78" cx="139.72" rx="10.636" ry="19.431" fill="#fff"/>
		<path d="m148.17 207.09c-0.721 6.032-7.034 11.235-10.575 9.411-3.541-1.825-7.958-10.947-6.422-19.014s3.361 4.647 3.361 4.647 1.44-6.856 1.44-8.873 1.321 7.778 1.621 9.315c0.3 1.535 2.7-8.035 2.604-9.588s1.537 11.567 1.537 11.567 2.497-0.192 2.497-4.783 0.673 1.843 1.057 3.476 2.881-6.627 2.881-6.627 0.71 4.43-0.01 10.46z" fill="#C8C8C8"/>
		<path d="m140.88 173.88s9.378-3.383 15.962 4.117 17.978 30.835 19.478 32.789-7.453 2.211-10.923-2.289c-3.471-4.5-5.471-23.324-10.971-25.662s-10.12-2.34-12.06-4.84c-1.95-2.5-1.49-4.12-1.49-4.12z" fill="#C8C8C8"/>
		<path d="m140.88 171.56s9.378-3.384 15.962 4.116 15.534 32.238 17.034 34.192-5.01 0.808-8.479-3.692c-3.471-4.5-5.471-23.324-10.971-25.662s-10.116-2.338-12.058-4.838c-1.94-2.5-1.48-4.12-1.48-4.12z" fill="#fff"/>
		<path d="m137.37 174.04s-9.378-3.384-15.962 4.116-17.977 30.835-19.477 32.79c-1.5 1.953 7.453 2.21 10.922-2.29 3.471-4.5 5.471-23.324 10.971-25.662s10.116-2.338 12.058-4.838c1.94-2.5 1.49-4.12 1.49-4.12z" fill="#C8C8C8"/>
		<path d="m137.37 171.72s-9.378-3.385-15.962 4.115-15.534 32.238-17.034 34.193c-1.5 1.953 5.01 0.807 8.479-3.693 3.471-4.5 5.471-23.324 10.971-25.662s10.116-2.338 12.058-4.838c1.93-2.5 1.48-4.12 1.48-4.12z" fill="#fff"/>
		<path d="m145.86 143.65s-2.052 3.258 2.032 4.973c4.086 1.716 22.352-0.916 24.009-1.594s9.038-28.883 8.255-29.486c-1.808-1.394-8.702 14.194-10.756 17.452-2.06 3.26-23.54 8.66-23.54 8.66z" fill="#C8C8C8"/>
		<path d="m156.15 144.37s-11.316 2.231-8.936 3.23 23.146-0.866 24.111-1.262c0.967-0.395 8.989-25.729 8.533-26.081-1.053-0.813-8.794 17.169-9.99 19.068-1.19 1.89-13.71 5.04-13.71 5.04z" fill="#fff"/>
</svg>
