<?xml version="1.0" encoding="utf-8"?>
<!-- Generator: Adobe Illustrator 16.0.0, SVG Export Plug-In . SVG Version: 6.00 Build 0)  -->
<!DOCTYPE svg PUBLIC "-//W3C//DTD SVG 1.1//EN" "http://www.w3.org/Graphics/SVG/1.1/DTD/svg11.dtd">
<svg version="1.1" id="Layer_1" xmlns="http://www.w3.org/2000/svg" xmlns:xlink="http://www.w3.org/1999/xlink" x="0px" y="0px"
	 width="155.715px" height="175.714px" viewBox="0 0 155.715 175.714" enable-background="new 0 0 155.715 175.714"
	 xml:space="preserve">
<g>
	<path fill="#A2958D" d="M32.874,82.374c3.011-37.616,29.141-68.298,46.269-69.142c18.632-3.619,48.523,38.016,47.741,70.612
		c-0.771,32.086-15.133,59.335-47.251,59.335C49.056,143.18,30.211,113.685,32.874,82.374z"/>
	<path fill="#C4C1BF" d="M26.994,83.333c3.012-37.615,29.142-68.298,46.269-69.142c18.633-3.619,48.524,38.017,47.741,70.612
		c-0.771,32.087-15.132,59.336-47.25,59.336C43.176,144.14,24.332,114.644,26.994,83.333z"/>
	<g>
		<g>
			<path d="M58.799,90.763h-5.416l-6.866-9.497c-0.517,0.026-0.929,0.039-1.238,0.039c-0.142,0-0.287-0.003-0.436-0.01
				c-0.148-0.006-0.3-0.016-0.454-0.029v5.899c0,1.276,0.142,2.07,0.426,2.379c0.373,0.438,0.94,0.658,1.702,0.658h0.793v0.561
				h-8.704v-0.561h0.773c0.852,0,1.464-0.277,1.838-0.832c0.206-0.31,0.31-1.044,0.31-2.205V74.051c0-1.276-0.143-2.069-0.426-2.379
				c-0.387-0.438-0.961-0.658-1.722-0.658h-0.773v-0.561h7.389c2.166,0,3.759,0.158,4.777,0.474s1.886,0.896,2.602,1.741
				c0.716,0.845,1.073,1.854,1.073,3.027c0,1.238-0.406,2.318-1.218,3.24c-0.813,0.922-2.077,1.57-3.792,1.944l4.197,5.822
				c0.954,1.341,1.776,2.23,2.467,2.669c0.689,0.438,1.589,0.716,2.698,0.832V90.763z M44.389,80.338c0.193,0,0.357,0,0.493,0
				s0.248,0,0.339,0c1.934,0,3.395-0.419,4.381-1.257s1.479-1.902,1.479-3.191c0-1.277-0.396-2.312-1.189-3.104
				s-1.848-1.19-3.162-1.19c-0.581,0-1.361,0.097-2.341,0.291V80.338z"/>
			<path d="M62.357,87.861c0.477,0,0.873,0.162,1.189,0.483c0.315,0.323,0.474,0.716,0.474,1.181c0,0.451-0.161,0.841-0.483,1.17
				s-0.716,0.493-1.18,0.493c-0.452,0-0.842-0.164-1.171-0.493c-0.328-0.329-0.493-0.719-0.493-1.17
				c0-0.478,0.165-0.874,0.493-1.189C61.516,88.02,61.905,87.861,62.357,87.861z"/>
			<path d="M75.646,90.202v0.561h-8.704v-0.561h0.735c0.838,0,1.444-0.245,1.818-0.735c0.245-0.31,0.367-1.076,0.367-2.302V74.051
				c0-1.031-0.064-1.708-0.193-2.031c-0.104-0.245-0.31-0.458-0.619-0.638c-0.438-0.245-0.896-0.368-1.373-0.368h-0.735v-0.561
				h8.704v0.561h-0.734c-0.825,0-1.425,0.245-1.799,0.735c-0.259,0.323-0.387,1.09-0.387,2.302v13.114
				c0,1.032,0.064,1.716,0.193,2.051c0.103,0.245,0.315,0.458,0.638,0.638c0.426,0.232,0.877,0.349,1.354,0.349H75.646z"/>
			<path d="M80.23,87.861c0.477,0,0.873,0.162,1.189,0.483c0.315,0.323,0.474,0.716,0.474,1.181c0,0.451-0.161,0.841-0.483,1.17
				s-0.716,0.493-1.18,0.493c-0.452,0-0.842-0.164-1.171-0.493c-0.328-0.329-0.493-0.719-0.493-1.17
				c0-0.478,0.165-0.874,0.493-1.189C79.389,88.02,79.778,87.861,80.23,87.861z"/>
			<path d="M90.346,81.266v5.899c0,1.276,0.142,2.07,0.426,2.379c0.374,0.438,0.947,0.658,1.722,0.658h0.773v0.561h-8.704v-0.561
				h0.773c0.852,0,1.464-0.277,1.838-0.832c0.193-0.31,0.29-1.044,0.29-2.205V74.051c0-1.276-0.129-2.069-0.387-2.379
				c-0.4-0.438-0.98-0.658-1.741-0.658h-0.773v-0.561h7.446c1.818,0,3.25,0.19,4.295,0.571c1.044,0.38,1.927,1.012,2.649,1.896
				c0.722,0.883,1.083,1.938,1.083,3.163c0,1.65-0.548,2.995-1.644,4.033c-1.097,1.038-2.638,1.557-4.623,1.557
				c-0.49,0-1.022-0.036-1.596-0.106C91.6,81.495,90.99,81.395,90.346,81.266z M90.346,80.396c0.528,0.104,0.999,0.181,1.412,0.232
				c0.412,0.052,0.761,0.077,1.045,0.077c1.044,0,1.94-0.403,2.688-1.209c0.747-0.806,1.121-1.847,1.121-3.124
				c0-0.877-0.177-1.692-0.531-2.447c-0.355-0.754-0.864-1.318-1.528-1.692s-1.415-0.561-2.253-0.561
				c-0.503,0-1.154,0.097-1.954,0.29V80.396z"/>
			<path d="M104.949,87.861c0.477,0,0.873,0.162,1.189,0.483c0.315,0.323,0.474,0.716,0.474,1.181c0,0.451-0.161,0.841-0.483,1.17
				s-0.716,0.493-1.18,0.493c-0.452,0-0.842-0.164-1.171-0.493c-0.328-0.329-0.493-0.719-0.493-1.17
				c0-0.478,0.165-0.874,0.493-1.189C104.107,88.02,104.497,87.861,104.949,87.861z"/>
		</g>
		<g>
			<g>
				<path fill="#7A7069" d="M60.269,90.763h-5.416l-6.866-9.497c-0.517,0.026-0.929,0.039-1.238,0.039
					c-0.142,0-0.287-0.003-0.436-0.01c-0.148-0.006-0.3-0.016-0.454-0.029v5.899c0,1.276,0.142,2.07,0.426,2.379
					c0.373,0.438,0.94,0.658,1.702,0.658h0.793v0.561h-8.704v-0.561h0.773c0.852,0,1.464-0.277,1.838-0.832
					c0.206-0.31,0.31-1.044,0.31-2.205V74.051c0-1.276-0.143-2.069-0.426-2.379c-0.387-0.438-0.961-0.658-1.722-0.658h-0.773v-0.561
					h7.389c2.166,0,3.759,0.158,4.777,0.474s1.886,0.896,2.602,1.741c0.716,0.845,1.073,1.854,1.073,3.027
					c0,1.238-0.406,2.318-1.218,3.24c-0.813,0.922-2.077,1.57-3.792,1.944l4.197,5.822c0.954,1.341,1.776,2.23,2.467,2.669
					c0.689,0.438,1.589,0.716,2.698,0.832V90.763z M45.858,80.338c0.193,0,0.357,0,0.493,0s0.248,0,0.339,0
					c1.934,0,3.395-0.419,4.381-1.257s1.479-1.902,1.479-3.191c0-1.277-0.396-2.312-1.189-3.104s-1.848-1.19-3.162-1.19
					c-0.581,0-1.361,0.097-2.341,0.291V80.338z"/>
				<path fill="#7A7069" d="M63.827,87.861c0.477,0,0.873,0.162,1.189,0.483c0.315,0.323,0.474,0.716,0.474,1.181
					c0,0.451-0.161,0.841-0.483,1.17s-0.716,0.493-1.18,0.493c-0.452,0-0.842-0.164-1.171-0.493
					c-0.328-0.329-0.493-0.719-0.493-1.17c0-0.478,0.165-0.874,0.493-1.189C62.985,88.02,63.375,87.861,63.827,87.861z"/>
				<path fill="#7A7069" d="M77.115,90.202v0.561h-8.704v-0.561h0.735c0.838,0,1.444-0.245,1.818-0.735
					c0.245-0.31,0.367-1.076,0.367-2.302V74.051c0-1.031-0.064-1.708-0.193-2.031c-0.104-0.245-0.31-0.458-0.619-0.638
					c-0.438-0.245-0.896-0.368-1.373-0.368h-0.735v-0.561h8.704v0.561h-0.734c-0.825,0-1.425,0.245-1.799,0.735
					c-0.259,0.323-0.387,1.09-0.387,2.302v13.114c0,1.032,0.064,1.716,0.193,2.051c0.103,0.245,0.315,0.458,0.638,0.638
					c0.426,0.232,0.877,0.349,1.354,0.349H77.115z"/>
				<path fill="#7A7069" d="M81.7,87.861c0.477,0,0.873,0.162,1.189,0.483c0.315,0.323,0.474,0.716,0.474,1.181
					c0,0.451-0.161,0.841-0.483,1.17s-0.716,0.493-1.18,0.493c-0.452,0-0.842-0.164-1.171-0.493
					c-0.328-0.329-0.493-0.719-0.493-1.17c0-0.478,0.165-0.874,0.493-1.189C80.858,88.02,81.248,87.861,81.7,87.861z"/>
				<path fill="#7A7069" d="M91.815,81.266v5.899c0,1.276,0.142,2.07,0.426,2.379c0.374,0.438,0.947,0.658,1.722,0.658h0.773v0.561
					h-8.704v-0.561h0.773c0.852,0,1.464-0.277,1.838-0.832c0.193-0.31,0.29-1.044,0.29-2.205V74.051
					c0-1.276-0.129-2.069-0.387-2.379c-0.4-0.438-0.98-0.658-1.741-0.658h-0.773v-0.561h7.446c1.818,0,3.25,0.19,4.295,0.571
					c1.044,0.38,1.927,1.012,2.649,1.896c0.722,0.883,1.083,1.938,1.083,3.163c0,1.65-0.548,2.995-1.644,4.033
					c-1.097,1.038-2.638,1.557-4.623,1.557c-0.49,0-1.022-0.036-1.596-0.106C93.069,81.495,92.46,81.395,91.815,81.266z
					 M91.815,80.396c0.528,0.104,0.999,0.181,1.412,0.232c0.412,0.052,0.761,0.077,1.045,0.077c1.044,0,1.94-0.403,2.688-1.209
					c0.747-0.806,1.121-1.847,1.121-3.124c0-0.877-0.177-1.692-0.531-2.447c-0.355-0.754-0.864-1.318-1.528-1.692
					s-1.415-0.561-2.253-0.561c-0.503,0-1.154,0.097-1.954,0.29V80.396z"/>
				<path fill="#7A7069" d="M106.419,87.861c0.477,0,0.873,0.162,1.189,0.483c0.315,0.323,0.474,0.716,0.474,1.181
					c0,0.451-0.161,0.841-0.483,1.17s-0.716,0.493-1.18,0.493c-0.452,0-0.842-0.164-1.171-0.493
					c-0.328-0.329-0.493-0.719-0.493-1.17c0-0.478,0.165-0.874,0.493-1.189C105.577,88.02,105.967,87.861,106.419,87.861z"/>
			</g>
		</g>
	</g>
	<path fill="#4B6931" d="M17.105,142.575c0,0-5.116-12.225-8.618-15.881c-3.502-3.658,6.713,6.838,8.464,9.762
		c1.751,2.923,2.335-8.387,1.751-12.07s2.043,8.589,2.918,10.916c0.875,2.326,2.919,8.454,3.502-2.344
		c0.583-10.797,1.46-4.428,2.043-1.484c0.583,2.944,1.46,16.493,1.751,9.719s1.167-20.238,1.167-20.238l2.043,12.632l2.334,4.8
		l3.502-14c0,0-2.043,8.141,0,12.15s0.584,16.879,3.794,6.942s5.837-23.562,5.837-23.562s1.166,18.128,2.042,21.275
		s1.168,9.236,2.919,5.025c1.751-4.213,2.244-14.794,3.311-16.652c1.066-1.859,2.817,10.82,2.817,10.82s3.21,5.121,5.545-4.509
		s4.086-14.923,4.086-14.923s-0.94,12.752,0,17.594s3.501,6.658,3.793-1.946s0-12.216,0-12.216s2.626,12.338,4.961,16
		s5.253-19.432,5.253-19.432s0.021,14.326,1.168,20.238s8.6-9.674,9.698-14.498c1.099-4.825-0.068,8.861,1.391,13.691
		s6.128,2.758,6.712,0s1.751-9.152,1.751-9.152s-0.402,5.1,1.459,9.152s5.253-2.855,5.253-6.601s-1.46-18.179,0-10.378
		s3.211,11.594,3.211,11.594v-12.259l2.84,17.644v-14.357c0,0,2.268,4.201,3.34,7.757s3.742,7.407,3.742,7.407
		s0.635-12.803,1.951-15.164c1.316-2.359-2.426-3.359,0,3.537c2.426,6.895,3.886,10.521,4.761,11.627s4.732,5.83,4.847-2.807
		s0.697-8.688,1.281-6.912c0.584,1.777,0,5.128,0,5.128s1.459,1.289,2.043,3.784s2.776,0.604,2.556-3.85s2.405,1.85,2.405,1.85
		l1.167,5.093L17.105,142.575z"/>
	<path fill="#9CBE58" d="M137.184,145.18c0,0,5.376-17.981,8.89-22.643c3.513-4.661-6.734,8.715-8.491,12.44
		c-1.756,3.725-2.342-10.688-1.756-15.382s-2.05,10.945-2.928,13.911c-0.878,2.965-2.928,10.774-3.513-2.986
		c-0.585-13.76-1.465-5.643-2.05-1.891c-0.585,3.751-1.465,21.018-1.757,12.385c-0.291-8.634-1.17-25.791-1.17-25.791l-2.05,16.097
		l-2.342,6.116l-3.513-17.841c0,0,2.05,10.375,0,15.485c-2.05,5.109-0.586,21.509-3.806,8.847
		c-3.221-12.663-5.855-30.026-5.855-30.026s-1.17,23.102-2.049,27.113c-0.879,4.01-1.172,11.771-2.928,6.402
		c-1.757-5.367-2.252-18.852-3.321-21.221c-1.07-2.369-2.826,13.79-2.826,13.79s-3.221,6.526-5.563-5.746
		c-2.343-12.272-4.1-19.017-4.1-19.017s0.944,16.25,0,22.42c-0.943,6.171-3.512,8.484-3.805-2.48s0-15.567,0-15.567
		s-2.634,15.724-4.977,20.391c-2.342,4.667-5.27-24.763-5.27-24.763s-0.021,18.256-1.172,25.791
		c-1.15,7.533-8.627-12.329-9.729-18.478c-1.103-6.148,0.068,11.294-1.396,17.449c-1.464,6.154-6.147,3.515-6.733,0
		s-1.756-11.664-1.756-11.664s0.403,6.499-1.464,11.664s-5.27-3.64-5.27-8.412s1.465-23.167,0-13.226s-3.222,14.775-3.222,14.775
		v-15.623l-2.849,22.485V121.69c0,0-2.274,5.353-3.351,9.884c-1.075,4.531-3.754,9.44-3.754,9.44s-0.637-16.317-1.957-19.324
		c-1.32-3.009,2.434-4.282,0,4.506c-2.434,8.787-3.898,13.41-4.776,14.818c-0.877,1.408-4.747,7.43-4.861-3.578
		c-0.115-11.007-0.7-11.071-1.285-8.807c-0.586,2.264,0,6.533,0,6.533s-1.464,1.643-2.05,4.823c-0.586,3.18-2.785,0.77-2.563-4.905
		c0.221-5.676-2.413,2.355-2.413,2.355l-1.171,6.491L137.184,145.18z"/>
</g>
</svg>
