<?xml version="1.0" encoding="UTF-8" standalone="no"?>
<!-- Generator: Adobe Illustrator 16.0.0, SVG Export Plug-In . SVG Version: 6.00 Build 0)  -->

<svg
   xmlns:dc="http://purl.org/dc/elements/1.1/"
   xmlns:cc="http://creativecommons.org/ns#"
   xmlns:rdf="http://www.w3.org/1999/02/22-rdf-syntax-ns#"
   xmlns:svg="http://www.w3.org/2000/svg"
   xmlns="http://www.w3.org/2000/svg"
   xmlns:sodipodi="http://sodipodi.sourceforge.net/DTD/sodipodi-0.dtd"
   xmlns:inkscape="http://www.inkscape.org/namespaces/inkscape"
   version="1.1"
   id="Layer_1"
   x="0px"
   y="0px"
   width="150px"
   height="163.571px"
   viewBox="0 0 150 163.571"
   enable-background="new 0 0 150 163.571"
   xml:space="preserve"
   inkscape:version="0.48.2 r9819"
   sodipodi:docname="eggrip.svg"><metadata
   id="metadata25"><rdf:RDF><cc:Work
       rdf:about=""><dc:format>image/svg+xml</dc:format><dc:type
         rdf:resource="http://purl.org/dc/dcmitype/StillImage" /></cc:Work></rdf:RDF></metadata><defs
   id="defs23" /><sodipodi:namedview
   pagecolor="#ffffff"
   bordercolor="#666666"
   borderopacity="1"
   objecttolerance="10"
   gridtolerance="10"
   guidetolerance="10"
   inkscape:pageopacity="0"
   inkscape:pageshadow="2"
   inkscape:window-width="1109"
   inkscape:window-height="651"
   id="namedview21"
   showgrid="false"
   inkscape:zoom="1.4427985"
   inkscape:cx="85.821312"
   inkscape:cy="81.7855"
   inkscape:window-x="245"
   inkscape:window-y="47"
   inkscape:window-maximized="0"
   inkscape:current-layer="g9" />
<g
   id="g3">
	<path
   d="M30.017,91.659c3.011-37.616,29.141-68.298,46.269-69.142c18.632-3.619,48.523,38.016,47.741,70.612   c-0.771,32.086-15.133,59.335-47.251,59.335C46.198,152.465,27.354,122.97,30.017,91.659z"
   id="path5"
   fill="#A2958D" />
	<path
   d="M24.137,92.619c3.012-37.615,29.142-68.298,46.269-69.142c18.633-3.619,48.524,38.017,47.741,70.612   c-0.771,32.087-15.132,59.336-47.25,59.336C40.318,153.425,21.475,123.929,24.137,92.619z"
   id="path7"
   fill="#C4C1BF" />
	<g
   id="g9">
		<text
	 style="text-anchor: middle"
   transform="matrix(1 0 0 1 74.2256 100)"
   font-size="24"
   id="text11">{{tomb.name}}</text>

		<g
   id="g13">
			<text
	 style="text-anchor: middle"
   transform="matrix(1 0 0 1 75.583 100)"
   font-size="24"
   id="text15"
   fill="#7A7069">{{tomb.name}}</text>
		</g>

		<g
   id="g14">
			<text
	 style="text-anchor: middle"
   transform="matrix(1 0 0 1 74 120)"
   font-size="14"
   id="text15"
   fill="#7A7069">{{tomb.age}} days</text>
		</g>

	</g>
	
		
		
	<path
   d="M14.248,151.861c0,0-5.116-12.225-8.618-15.881c-3.502-3.658,6.713,6.838,8.464,9.762   c1.751,2.923,2.335-8.387,1.751-12.07s2.043,8.589,2.918,10.916c0.875,2.326,2.919,8.454,3.502-2.344   c0.583-10.797,1.46-4.428,2.043-1.484c0.583,2.944,1.46,16.493,1.751,9.719s1.167-20.238,1.167-20.238l2.043,12.632l2.334,4.8   l3.502-14c0,0-2.043,8.141,0,12.15s0.584,16.879,3.794,6.942s5.837-23.562,5.837-23.562s1.166,18.128,2.042,21.275   s1.168,9.236,2.919,5.025c1.751-4.213,2.244-14.794,3.311-16.652c1.066-1.859,2.817,10.82,2.817,10.82s3.21,5.121,5.545-4.509   s4.086-14.923,4.086-14.923s-0.94,12.752,0,17.594s3.501,6.658,3.793-1.946s0-12.216,0-12.216s2.626,12.338,4.961,16   s5.253-19.432,5.253-19.432s0.021,14.326,1.168,20.238s8.6-9.674,9.698-14.498c1.099-4.825-0.068,8.861,1.391,13.691   s6.128,2.758,6.712,0s1.751-9.152,1.751-9.152s-0.402,5.1,1.459,9.152s5.253-2.855,5.253-6.601s-1.46-18.179,0-10.378   s3.211,11.594,3.211,11.594v-12.259l2.84,17.644v-14.357c0,0,2.268,4.201,3.34,7.757s3.742,7.407,3.742,7.407   s0.635-12.803,1.951-15.164c1.316-2.359-2.426-3.359,0,3.537c2.426,6.895,3.886,10.521,4.761,11.627s4.732,5.83,4.847-2.807   s0.697-8.688,1.281-6.912c0.584,1.777,0,5.128,0,5.128s1.459,1.289,2.043,3.784s2.776,0.604,2.556-3.85s2.405,1.85,2.405,1.85   l1.167,5.093L14.248,151.861z"
   id="path17"
   fill="#4B6931" />
	<path
   d="M134.326,154.465c0,0,5.376-17.981,8.89-22.643c3.513-4.661-6.734,8.715-8.491,12.44   c-1.756,3.725-2.342-10.688-1.756-15.382s-2.05,10.945-2.928,13.911c-0.878,2.965-2.928,10.774-3.513-2.986   c-0.585-13.76-1.465-5.643-2.05-1.891c-0.585,3.751-1.465,21.018-1.757,12.385c-0.291-8.634-1.17-25.791-1.17-25.791l-2.05,16.097   l-2.342,6.116l-3.513-17.841c0,0,2.05,10.375,0,15.485c-2.05,5.109-0.586,21.509-3.806,8.847   c-3.221-12.663-5.855-30.026-5.855-30.026s-1.17,23.102-2.049,27.113c-0.879,4.01-1.172,11.771-2.928,6.402   c-1.757-5.367-2.252-18.852-3.321-21.221c-1.07-2.369-2.826,13.79-2.826,13.79s-3.221,6.526-5.563-5.746   c-2.343-12.272-4.1-19.017-4.1-19.017s0.944,16.25,0,22.42c-0.943,6.171-3.512,8.484-3.805-2.48s0-15.567,0-15.567   s-2.634,15.724-4.977,20.391c-2.342,4.667-5.27-24.763-5.27-24.763s-0.021,18.256-1.172,25.791   c-1.15,7.533-8.627-12.329-9.729-18.478c-1.103-6.148,0.068,11.294-1.396,17.449c-1.464,6.154-6.147,3.515-6.733,0   s-1.756-11.664-1.756-11.664s0.403,6.499-1.464,11.664s-5.27-3.64-5.27-8.412s1.465-23.167,0-13.226s-3.222,14.775-3.222,14.775   v-15.623l-2.849,22.485v-18.296c0,0-2.274,5.353-3.351,9.884c-1.075,4.531-3.754,9.44-3.754,9.44s-0.637-16.317-1.957-19.324   c-1.32-3.009,2.434-4.282,0,4.506c-2.434,8.787-3.898,13.41-4.776,14.818c-0.877,1.408-4.747,7.43-4.861-3.578   c-0.115-11.007-0.7-11.071-1.285-8.807c-0.586,2.264,0,6.533,0,6.533s-1.464,1.643-2.05,4.823c-0.586,3.18-2.785,0.77-2.563-4.905   c0.221-5.676-2.413,2.355-2.413,2.355l-1.171,6.491L134.326,154.465z"
   id="path19"
   fill="#9CBE58" />
</g>
</svg>