<svg xmlns:rdf="http://www.w3.org/1999/02/22-rdf-syntax-ns#" xmlns="http://www.w3.org/2000/svg" version="1.0" xmlns:cc="http://creativecommons.org/ns#" xmlns:xlink="http://www.w3.org/1999/xlink" viewBox="0 0 689.56 1198.9" xmlns:dc="http://purl.org/dc/elements/1.1/">
 <defs>
  <filter id="h" y="-.15419" width="1.2947" x="-.14734" height="1.3084">
   <feGaussianBlur stdDeviation="0.50436734"/>
  </filter>
  <filter id="v" y="-.30577" width="1.3198" x="-.15991" height="1.6115">
   <feGaussianBlur stdDeviation="49.116655"/>
  </filter>
  <mask id="c">
   <path d="m657.83 842.53c-18.69 145.07-155.61 254.67-316.62 249.07l-2.32-0.1c-151.69-6.4-272.72-113.19-290.81-247.47-0.979 8.41-1.687 16.44-2.062 24.03-7.708 155.94 123.51 288.34 292.87 295.44l2.32 0.1c168.61 5.9 310.79-114.6 318.46-269.79 0.76-15.34 0.1-32.63-1.84-51.28z" filter="url(#v)" fill="#333"/>
  </mask>
  <filter id="af">
   <feGaussianBlur stdDeviation="10.679398"/>
  </filter>
  <mask id="t">
   <path d="m352.89 376.28c-165.72 3.64-299.28 338.24-306.87 491.78-0.466 9.38-0.396 18.69 0.123 27.87 8.827-156.93 146.08-496.63 314.69-489.56 159.7 6.69 290.77 322.13 298.75 488.88 0.03-0.48 0.07-0.96 0.09-1.44 7.71-155.98-129.47-510.34-298.84-517.44-2.65-0.11-5.31-0.15-7.94-0.09z" filter="url(#af)" fill="#fff"/>
  </mask>
  <filter id="ad">
   <feGaussianBlur stdDeviation="14.018173"/>
  </filter>
  <radialGradient id="k" gradientUnits="userSpaceOnUse" cy="554.36" cx="-331.33" gradientTransform="matrix(1 0 0 .35417 0 358.02)" r="242.44">
   <stop offset="0"/>
   <stop stop-opacity="0" offset="1"/>
  </radialGradient>
  <mask id="r">
   <path opacity="0.96" d="m338.89 1163.5c-169.36-7.1-300.57-139.5-292.86-295.43 7.71-155.97 145.42-498.8 314.79-491.7s306.57 361.45 298.86 517.42c-7.67 155.21-149.87 275.71-318.48 269.81" mask="url(#t)" transform="translate(1.3899 -23.458)" filter="url(#ad)" fill="#fff"/>
  </mask>
  <filter id="y" y="-.28940" width="1.2211" x="-.11056" height="1.5788">
   <feGaussianBlur stdDeviation="2.1750063"/>
  </filter>
  <mask id="q">
   <path d="m295.56 184c-10.99 0.11-19.68 5.9-19.65 14.09 0 0.31 0.02 0.62 0.06 0.94 0.7-7.62 9.09-12.92 19.59-13.03 10.44 0.1 18.83 5.34 19.63 12.88 0.03-0.28 0.06-0.53 0.06-0.79 0.03-8.19-8.7-13.98-19.69-14.09z" filter="url(#y)" fill="#fff"/>
  </mask>
  <filter id="x" y="-.16455" width="1.3114" x="-.15569" height="1.3291">
   <feGaussianBlur stdDeviation="0.99309064"/>
  </filter>
  <mask id="o">
   <path d="m284.87 201.08c-3.83-0.18-7.08 2.93-7.25 6.94-0.09 1.94 0.58 3.76 1.71 5.12-0.69-1.19-1.09-2.62-1.03-4.12 0.18-4.01 3.43-7.12 7.25-6.94 1.91 0.09 3.62 1 4.82 2.37-1.18-1.92-3.17-3.26-5.5-3.37z" filter="url(#x)" fill="#fff"/>
  </mask>
  <filter id="aa" y="-.25373" width="1.4076" x="-.20378" height="1.5075">
   <feGaussianBlur stdDeviation="4.8111864"/>
  </filter>
  <mask id="p">
   <path d="m248.33 257.73l0.09 3.83c22.95-6.74 37.94-21.75 47.13-37.93-9.45 11.6-22.77 26.54-47.22 34.1z" filter="url(#aa)" fill="#fff"/>
  </mask>
  <filter id="w" y="-.24995" width="1.4847" x="-.24237" height="1.4999">
   <feGaussianBlur stdDeviation="8.9890291"/>
  </filter>
  <mask id="n">
   <path d="m317.11 628.4a37.087 35.963 0 1 1 0.28 0.01" transform="matrix(1.9192 0 0 1.8542 -304.64 -512.81)" filter="url(#w)" fill="#eee"/>
  </mask>
  <filter id="ae">
   <feGaussianBlur stdDeviation="6.843009"/>
  </filter>
  <mask id="s">
   <path d="m-17.336-272.22c19.019 73.7 93.095 206.49 139.85 271.1 62.96 87.022 145.87 138.68 185.06 115.28l0.53-0.34c23.7-14.726 25.43-54.137 8.69-102.44 9.8 39.001 5.64 69.804-14.69 82.435l-0.53 0.344c-39.19 23.401-122.1-28.257-185.06-115.28-42.775-59.119-108.42-175.31-133.85-251.1z" filter="url(#ae)" fill="#fff"/>
  </mask>
  <filter id="ac">
   <feGaussianBlur stdDeviation="10.042836"/>
  </filter>
  <mask id="g">
   <path d="m-10.094-326.16c-3.458 0-6.426 0.7-8.875 2.16-8.709 5.2-9.945 19.68-5.875 39.97-0.981-12.91 1.332-22.06 7.875-25.97 39.186-23.4 215.32 149.35 278.28 236.38 32.88 45.43 53.85 91.594 60.81 128.65-3.69-39.021-25.65-91.3-62.81-142.66-59.03-81.58-217.53-238.51-269.4-238.53z" filter="url(#ac)" fill="#eee"/>
  </mask>
  <mask id="f">
   <path d="m302.4 112.43c-39.19 23.39-122.09-28.248-185.06-115.27-62.961-87.026-175.51-297.77-136.32-321.17 39.183-23.39 215.33 149.37 278.3 236.4 62.66 86.606 82.13 175.78 43.61 199.71" mask="url(#s)" transform="translate(-.86064 8.0806e-8)" fill="#fff"/>
  </mask>
  <filter id="ab" y="-.12316" width="1.3244" x="-.16218" height="1.2463">
   <feGaussianBlur stdDeviation="15.902483"/>
  </filter>
  <mask id="e">
   <path opacity=".82960" d="m312.72 117.83c-9.69 11.01-48.47-21.317-86.57-72.167-38.1-50.849-116.19-172.09-106.51-183.1 9.69-11.01 103.5 92.359 141.6 143.21 37.92 50.604 60.96 100.57 51.61 111.91" filter="url(#ab)" fill="#fff"/>
  </mask>
  <filter id="z" y="-.30011" width="1.3453" x="-.17263" height="1.6002">
   <feGaussianBlur stdDeviation="6.550291"/>
  </filter>
  <mask id="d">
   <path d="m296.63 136.03c-2.33 19.58-19.22 34.38-39.09 33.62l-0.28-0.03c-18.7-0.86-33.62-15.22-35.91-33.31-0.13 1.18-0.23 2.31-0.28 3.37-0.95 21.09 15.26 38.98 36.19 39.94l0.28 0.03c20.83 0.8 38.39-15.48 39.34-36.47 0.1-2.13 0.01-4.56-0.25-7.15z" filter="url(#z)" fill="#fff"/>
  </mask>
 </defs>
 <g display="none">
  <path opacity="0.96" d="m-342.35 640.13a242.44 85.863 0 1 1 1.82 0.03" transform="matrix(1.2958 0 0 1 799.89 558.63)" display="inline" fill="url(#k)"/>
 </g>
 <g stroke="#000" stroke-width="3.9" fill="#fff">
  <g transform="translate(48.18 326.16)" stroke-linecap="round">
   <path d="m311.91 112.43c39.18 23.39 122.09-28.248 185.05-115.27 62.97-87.026 175.51-297.77 136.33-321.17-39.19-23.39-215.34 149.37-278.3 236.4-62.67 86.606-82.14 175.78-43.61 199.71"/>
   <path d="m302.4 112.43c-39.19 23.39-122.09-28.248-185.06-115.27-62.961-87.026-175.51-297.77-136.32-321.17 39.183-23.39 215.33 149.37 278.3 236.4 62.66 86.606 82.13 175.78 43.61 199.71" mask="url(#f)" transform="matrix(-1 0 0 1 614.3 0)"/>
   <path d="m302.4 112.43c-39.19 23.39-122.09-28.248-185.06-115.27-62.961-87.026-175.51-297.77-136.32-321.17 39.183-23.39 215.33 149.37 278.3 236.4 62.66 86.606 82.13 175.78 43.61 199.71" mask="url(#g)" transform="matrix(-1 0 0 1 614.3 0)"/>
   <path d="m302.4 112.43c-39.19 23.39-122.09-28.248-185.06-115.27-62.961-87.026-175.51-297.77-136.32-321.17 39.183-23.39 215.33 149.37 278.3 236.4 62.66 86.606 82.13 175.78 43.61 199.71"/>
   <path d="m302.4 112.43c-39.19 23.39-122.09-28.248-185.06-115.27-62.961-87.026-175.51-297.77-136.32-321.17 39.183-23.39 215.33 149.37 278.3 236.4 62.66 86.606 82.13 175.78 43.61 199.71" mask="url(#f)"/>
   <path d="m302.4 112.43c-39.19 23.39-122.09-28.248-185.06-115.27-62.961-87.026-175.51-297.77-136.32-321.17 39.183-23.39 215.33 149.37 278.3 236.4 62.66 86.606 82.13 175.78 43.61 199.71" mask="url(#g)"/>
   <path d="m305.19 113.21c-21.67 11.28-81.75-37.482-134.12-108.83-52.37-71.353-153.76-238.51-132.1-249.78 21.66-11.28 158.21 137.58 210.58 208.93 52.12 71.011 77.09 137.77 55.93 149.53"/>
   <path d="m305.19 113.21c-21.67 11.28-81.75-37.482-134.12-108.83-52.37-71.353-153.76-238.51-132.1-249.78 21.66-11.28 158.21 137.58 210.58 208.93 52.12 71.011 77.09 137.77 55.93 149.53" mask="url(#e)"/>
   <path d="m309.12 113.21c21.66 11.28 81.74-37.482 134.12-108.83 52.37-71.353 153.76-238.51 132.1-249.78-21.67-11.28-158.22 137.58-210.59 208.93-52.12 71.011-77.09 137.77-55.92 149.53"/>
   <path d="m305.19 113.21c-21.67 11.28-81.75-37.482-134.12-108.83-52.37-71.353-153.76-238.51-132.1-249.78 21.66-11.28 158.21 137.58 210.58 208.93 52.12 71.011 77.09 137.77 55.93 149.53" mask="url(#e)" transform="matrix(-1 0 0 1 614.3 0)"/>
  </g>
  <g transform="translate(-20.386 59.616)">
   <path d="m338.89 1163.5c-169.36-7.1-300.57-139.5-292.86-295.43 7.71-155.97 145.42-498.8 314.79-491.7s306.57 361.45 298.86 517.42c-7.67 155.21-149.87 275.71-318.48 269.81" transform="translate(22.857 -105.71)" stroke="#000" stroke-linecap="round" stroke-width="3.9" fill="#fff"/>
  </g>
  <g transform="translate(48.18 326.16)" stroke-linecap="round">
   <path d="m301.21 651.93c-59.76-3.08-106.06-60.45-103.34-128.07 2.72-67.61 51.31-216.22 111.08-213.14s108.19 156.68 105.47 224.29c-2.71 67.29-52.89 119.51-112.39 116.95"/>
   <path d="m301.21 651.93c-59.76-3.08-106.06-60.45-103.34-128.07 2.72-67.61 51.31-216.22 111.08-213.14s108.19 156.68 105.47 224.29c-2.71 67.29-52.89 119.51-112.39 116.95" mask="url(#n)"/>
  </g>
  <g transform="translate(48.18 326.16)">
   <path d="m-45.993 170.96c-1.264-0.06-2.243-1.05-2.185-2.22 0.057-1.17 1.13-2.08 2.393-2.03 1.264 0.06 2.243 1.05 2.185 2.22-0.057 1.17-1.118 2.07-2.376 2.03" stroke-linecap="round"/>
   <g transform="translate(12)">
    <g id="u">
     <path d="m294.41 225.55c0.52-0.55 1.16-2.09 1.18-1.73 0.03 0.49-0.04 4.47-0.04 5.23v59.07c0 3.19-2.56 5.75-5.75 5.75h-35.68c-3.19 0-5.75-2.56-5.75-5.75v-30.14c11.53-3.12 33.32-15.5 46.04-32.43z" stroke="#000" stroke-linecap="round" stroke-width="3.9" fill="#fff"/>
     <path d="m295.56 223.78c-0.09 0.04-0.36 0.54-0.65 1.03-0.02 1.03 0 2.01 0 2.35v59.09c0 3.19-2.57 5.75-5.75 5.75h-35.69c-2.15 0-4.01-1.17-5-2.91 0.46 2.72 2.8 4.79 5.65 4.79h35.69c3.19 0 5.75-2.57 5.75-5.76v-59.06c0-0.75 0.06-4.76 0.03-5.25 0-0.04-0.01-0.04-0.03-0.03z" stroke="#000" stroke-linecap="round" stroke-width="3.9" fill="#fff"/>
     <path d="m294.41 225.55c0.52-0.55 1.16-2.09 1.18-1.73 0.03 0.49-0.04 4.47-0.04 5.23v59.07c0 3.19-2.56 5.75-5.75 5.75h-35.68c-3.19 0-5.75-2.56-5.75-5.75v-30.14c11.53-3.12 33.32-15.5 46.04-32.43z" mask="url(#p)" stroke="#000" stroke-linecap="round" stroke-width="3.9" fill="#fff"/>
    </g>
    <use xlink:href="#u" transform="matrix(-1 0 0 1 591.15 0)" height="872.69043" width="636.52466" stroke="#000000" y="0" x="0" fill="#ffffff"/>
    <path d="m295.57 184.01c-10.99 0.11-19.69 5.89-19.66 14.09 0.03 8.19 15.18 25.05 19.66 24.9 4.49 0.15 19.64-16.71 19.67-24.9 0.03-8.2-8.67-13.98-19.67-14.09z" stroke="#000" stroke-linecap="round" stroke-width="3.9" fill="#fff"/>
    <path d="m295.57 184.01c-10.99 0.11-19.69 5.89-19.66 14.09 0.03 8.19 15.18 25.05 19.66 24.9 4.49 0.15 19.64-16.71 19.67-24.9 0.03-8.2-8.67-13.98-19.67-14.09z" mask="url(#q)" transform="translate(-.033211 .043051)" stroke="#000" stroke-linecap="round" stroke-width="3.9" fill="#fff"/>
    <path id="m" opacity=".8" d="m284.24 215.62a6.9287 7.2724 0 1 1 0.05 0.01" mask="url(#o)" transform="translate(4.7934 -.21143)" stroke="#000" stroke-linecap="round" stroke-width="3.9" fill="#fff"/>
    <use xlink:href="#m" transform="matrix(-1 0 0 1 591.11 -2.5538e-8)" height="872.69043" width="636.52466" stroke="#000000" y="0" x="0" stroke-width="3.9" fill="#ffffff"/>
    <path d="m279.22 194.1a2.1156 4.8395 0 1 1 0.01 0" transform="matrix(.71691 .69717 -.69717 .71691 215.25 -136.28)" stroke="#000" stroke-linecap="round" stroke-width="3.9" fill="#fff"/>
    <path id="l" d="m215.64 259.68c53.79 6.18 80.4-39.59 80.35-36.86-0.04 2.72-34.58 47.09-88.03 38.44-53.45-8.66-85.16-38.68-85.06-38.64 2.03 0.8 38.45 30.82 92 36.97" stroke="#000" stroke-linecap="round" stroke-width="3.9" fill="#fff"/>
    <use xlink:href="#l" transform="matrix(-1 0 0 1 591.54 .24459)" height="872.69043" width="636.52466" stroke="#000000" y="0" x="0" fill="#ffffff"/>
    <path id="b" d="m231.04 218.63c-28.3-15.56-58.58-25.26-90.53-30.76 36.4 6.09 72.18 20.61 90.88 32.51 2.49 1.93 4 0.95-0.35-1.75z" stroke="#000" stroke-linecap="round" stroke-width="3.9" fill="#fff"/>
    <use id="j" xlink:href="#b" transform="translate(-6.1679 -11.037)" height="872.69043" width="636.52466" stroke="#000000" y="0" x="0" stroke-width="3.9" fill="#ffffff"/>
    <use id="i" xlink:href="#b" transform="translate(-15.907 1.6231)" height="872.69043" width="636.52466" stroke="#000000" y="0" x="0" stroke-width="3.9" fill="#ffffff"/>
    <use xlink:href="#b" transform="matrix(-1 0 0 1 580.41 0)" height="872.69043" width="636.52466" stroke="#000000" y="0" x="0" fill="#ffffff"/>
    <use xlink:href="#j" transform="matrix(-1 0 0 1 580.41 0)" height="872.69043" width="636.52466" stroke="#000000" y="0" x="0" fill="#ffffff"/>
    <use xlink:href="#i" transform="matrix(-1 0 0 1 580.41 0)" height="872.69043" width="636.52466" stroke="#000000" y="0" x="0" fill="#ffffff"/>
   </g>
  </g>
  <g transform="translate(48.18 326.16)">
   <g transform="translate(11.069 .46121)" stroke="#000000" stroke-width="3.9" fill="#ffffff">
    <path id="a" d="m236.19 79.785c-14.81 2.906-18.41-1.158-31.54-10.49 13.28 10.804 17.21 12.931 31.81 12.361 3.15-0.149 1.54-2.293-0.27-1.871z" stroke="#000" stroke-linecap="round" stroke-width="3.9" fill="#fff"/>
    <use xlink:href="#a" transform="translate(-6.4899 6.0926)" height="872.69043" width="636.52466" y="0" x="0"/>
    <use xlink:href="#a" transform="translate(-11.523 12.98)" height="872.69043" width="636.52466" y="0" x="0"/>
   </g>
   <path opacity="0.93" d="m257.26 179.63c-20.92-0.96-37.13-18.85-36.18-39.94 0.95-21.08 17.97-67.43 38.89-66.47 20.92 0.959 37.87 48.86 36.92 69.95-0.95 20.98-18.52 37.27-39.35 36.47" stroke="#000" stroke-linecap="round" stroke-width="3.9" fill="#fff"/>
   <path opacity="0.93" d="m258.99 73.199c-14.78 0.356-27.48 24.068-33.75 45.021 6.02 11.79 17.95 20.1 32.03 20.75l0.27 0.03c15.38 0.59 28.99-8.15 35.43-21.2-6.1-21.07-18.63-43.915-33.01-44.574-0.33-0.015-0.64-0.035-0.97-0.027z" stroke="#000" stroke-linecap="round" stroke-width="3.9" fill="#fff"/>
   <path opacity="0.93" d="m257.26 179.63c-20.92-0.96-37.13-18.85-36.18-39.94 0.95-21.08 17.97-67.43 38.89-66.47 20.92 0.959 37.87 48.86 36.92 69.95-0.95 20.98-18.52 37.27-39.35 36.47" mask="url(#d)" stroke="#000" stroke-linecap="round" stroke-width="3.9" fill="#fff"/>
   <g transform="matrix(1.3416 0 0 1.3927 -88.938 -69.082)" stroke="#000" fill="#fff">
    <path opacity="0.93" d="m259.02 182.93c-7.82-0.43-13.87-8.53-13.52-18.06 0.36-9.54 6.71-30.5 14.53-30.06 7.82 0.43 14.15 22.09 13.79 31.63-0.35 9.49-6.91 16.86-14.7 16.5" stroke-linecap="round" stroke-width="2.8531"/>
    <path opacity=".32550" d="m259.29 134.82c-5.75 0.64-10.6 12.57-12.7 22.25 2.05 5.98 6.78 10.3 12.43 10.62h0.1c6.12 0.28 11.47-4.22 13.66-10.77-2.08-10.02-7-21.79-12.75-22.1-0.24-0.02-0.5-0.03-0.74 0z" stroke-linecap="round" stroke-width="2.8531"/>
    <path opacity="0.93" d="m247.76 226.09a3.4232 3.271 0 1 1 0.02 0" transform="matrix(0.789 0 0 .84696 59.99 -42.754)" filter="url(#h)" stroke-linecap="square" stroke-width="3.4902"/>
   </g>
   <g transform="matrix(-1 0 0 1 627.03 .46121)">
    <g transform="translate(11.069 .46121)" stroke-width="3.9">
     <path d="m236.19 79.785c-14.81 2.906-18.41-1.158-31.54-10.49 13.28 10.804 17.21 12.931 31.81 12.361 3.15-0.149 1.54-2.293-0.27-1.871z" stroke="#000" stroke-linecap="round" fill="#fff"/>
     <use xlink:href="#a" transform="translate(-6.4899 6.0926)" height="872.69043" width="636.52466" stroke="#000000" y="0" x="0" fill="#ffffff"/>
     <use xlink:href="#a" transform="translate(-11.523 12.98)" height="872.69043" width="636.52466" stroke="#000000" y="0" x="0" fill="#ffffff"/>
    </g>
    <path opacity="0.93" d="m257.26 179.63c-20.92-0.96-37.13-18.85-36.18-39.94 0.95-21.08 17.97-67.43 38.89-66.47 20.92 0.959 37.87 48.86 36.92 69.95-0.95 20.98-18.52 37.27-39.35 36.47" stroke-linecap="round" stroke-width="3.9"/>
    <path opacity="0.93" d="m258.99 73.199c-14.78 0.356-27.48 24.068-33.75 45.021 6.02 11.79 17.95 20.1 32.03 20.75l0.27 0.03c15.38 0.59 28.99-8.15 35.43-21.2-6.1-21.07-18.63-43.915-33.01-44.574-0.33-0.015-0.64-0.035-0.97-0.027z" stroke-linecap="round" stroke-width="3.9"/>
    <path opacity="0.93" d="m257.26 179.63c-20.92-0.96-37.13-18.85-36.18-39.94 0.95-21.08 17.97-67.43 38.89-66.47 20.92 0.959 37.87 48.86 36.92 69.95-0.95 20.98-18.52 37.27-39.35 36.47" mask="url(#d)" stroke-linecap="round" stroke-width="3.9"/>
    <g transform="matrix(1.3416 0 0 1.3927 -88.938 -69.082)">
     <path opacity="0.93" d="m259.02 182.93c-7.82-0.43-13.87-8.53-13.52-18.06 0.36-9.54 6.71-30.5 14.53-30.06 7.82 0.43 14.15 22.09 13.79 31.63-0.35 9.49-6.91 16.86-14.7 16.5" stroke-linecap="round" stroke-width="2.8531"/>
     <path opacity=".32550" d="m259.29 134.82c-5.75 0.64-10.6 12.57-12.7 22.25 2.05 5.98 6.78 10.3 12.43 10.62h0.1c6.12 0.28 11.47-4.22 13.66-10.77-2.08-10.02-7-21.79-12.75-22.1-0.24-0.02-0.5-0.03-0.74 0z" stroke-linecap="round" stroke-width="2.8531"/>
     <path opacity="0.93" d="m247.76 226.09a3.4232 3.271 0 1 1 0.02 0" transform="matrix(0.789 0 0 .84696 59.99 -42.754)" filter="url(#h)" stroke-linecap="square" stroke-width="3.4902"/>
    </g>
   </g>
  </g>
  <g transform="translate(48.18 326.16)" stroke-linecap="round">
   <path d="m338.89 1163.5c-169.36-7.1-300.57-139.5-292.86-295.43 7.71-155.97 145.42-498.8 314.79-491.7s306.57 361.45 298.86 517.42c-7.67 155.21-149.87 275.71-318.48 269.81" mask="url(#c)" transform="translate(-45.709 -372.26)"/>
   <path opacity=".5" d="m338.89 1163.5c-169.36-7.1-300.57-139.5-292.86-295.43 7.71-155.97 145.42-498.8 314.79-491.7s306.57 361.45 298.86 517.42c-7.67 155.21-149.87 275.71-318.48 269.81" mask="url(#c)" transform="translate(-45.709 -372.26)"/>
   <path d="m338.89 1163.5c-169.36-7.1-300.57-139.5-292.86-295.43 7.71-155.97 145.42-498.8 314.79-491.7s306.57 361.45 298.86 517.42c-7.67 155.21-149.87 275.71-318.48 269.81" mask="url(#c)" transform="translate(-45.709 -372.26)"/>
   <path d="m338.89 1163.5c-169.36-7.1-300.57-139.5-292.86-295.43 7.71-155.97 145.42-498.8 314.79-491.7s306.57 361.45 298.86 517.42c-7.67 155.21-149.87 275.71-318.48 269.81" mask="url(#r)" transform="translate(-45.709 -372.26)"/>
  </g>
 </g>
</svg>
