<?xml version="1.0" encoding="utf-8"?>
<!-- Generator: Adobe Illustrator 16.0.0, SVG Export Plug-In . SVG Version: 6.00 Build 0)  -->
<!DOCTYPE svg PUBLIC "-//W3C//DTD SVG 1.1//EN" "http://www.w3.org/Graphics/SVG/1.1/DTD/svg11.dtd">
<svg version="1.1" id="Layer_1" xmlns="http://www.w3.org/2000/svg" xmlns:xlink="http://www.w3.org/1999/xlink" x="0px" y="0px"
	 width="140px" height="177.143px" viewBox="0 0 140 177.143" enable-background="new 0 0 140 177.143" xml:space="preserve">
<g>
	<g>
		<path fill="#FFFFFF" stroke="#000000" stroke-miterlimit="10" d="M88.769,139.001c0,0,3.469,1.772,6.148,5.071
			c2.049,3.179,1.829,7.01,0.196,9.408c-1.633,2.397-7.222,9.482,0.547,9.507s12.577-2.771,12.577-2.771"/>
		<path fill="#FFFFFF" stroke="#000000" stroke-miterlimit="10" d="M47.727,136.083c0,0,0.903,3.788,0.132,7.97
			c-1.088,3.621-4.146,5.941-7.029,6.256c-2.884,0.313-11.901,0.66-6.878,6.586c5.024,5.925,10.271,7.77,10.271,7.77"/>
	</g>
	<path fill="#EE9255" d="M21.491,80.902C24.652,41.43,52.071,9.232,70.045,8.347c19.552-3.798,50.919,39.894,50.097,74.1
		c-0.809,33.671-15.877,62.263-49.582,62.263C38.472,144.709,18.697,113.758,21.491,80.902z"/>
	<path fill="#FBB47D" d="M27.298,85.879c2.788-34.813,26.971-63.21,42.823-63.991c17.245-3.35,44.909,35.185,44.184,65.353
		c-0.713,29.696-14.004,54.915-43.73,54.915C42.275,142.155,24.835,114.858,27.298,85.879z"/>
	<path fill="#FFFFFF" d="M24,81.919c0,0,16.596,25.443,46.485,25.969s47.848-25.302,47.848-25.302s0.042,38.683-24.708,53.755
		s-49.882,2.839-58.347-9.843C21.604,106.011,24,81.919,24,81.919z"/>
	<path fill="#EDA569" d="M94.667,99.237"/>
	<g>
		<path fill="#ED1F24" d="M67.72,119.053c0,0-4.75-8-5.75-8.25s1-4.75,2.875-4s10.125-1.668,11.875-0.084s3.75,2.084,3.75,2.084
			s-5.75,3.75-6.25,6.25s-1,5.25-1,5.25L67.72,119.053z"/>
		<path fill="#ED1F24" d="M67.024,119.289c0,0,6.545,0.819,6.942,1.447c0.397,0.628,4.166,33.357,5.158,35.936
			c0.991,2.578-8.037,13.289-8.037,13.289s-9.151-10.909-9.384-12.694S67.024,119.289,67.024,119.289z"/>
	</g>
	<path fill="#FFFFFF" stroke="#969696" stroke-miterlimit="10" d="M62.142,107.919c0,0-21.873-8.258-22.509-9.712
		c-0.636-1.453,10.559,27.435,10.559,27.435L62.142,107.919z"/>
	<path fill="#FFFFFF" stroke="#969696" stroke-miterlimit="10" d="M90.81,126.434l-11.838-19.265c0,0,21.58-7.427,22.273-8.854
		C101.937,96.886,90.81,126.434,90.81,126.434z"/>
	<g>
		<path fill="#F26865" d="M67.879,117.797c0,0-3.808-6.158-4.609-6.351s0.802-3.655,2.305-3.079
			c1.503,0.578,8.117-1.283,9.521-0.064c1.402,1.22,3.006,1.604,3.006,1.604s-4.609,2.887-5.011,4.811s-0.802,4.041-0.802,4.041
			L67.879,117.797z"/>
		<path fill="#F26865" d="M68.166,119.84c0,0,3.718,0.742,3.944,1.311s2.366,30.209,2.929,32.543
			c0.564,2.335-4.565,12.035-4.565,12.035s-5.198-9.879-5.331-11.496S68.166,119.84,68.166,119.84z"/>
	</g>
	<ellipse cx="54.833" cy="82.586" rx="1.834" ry="2.986"/>
	<ellipse cx="86" cy="82.586" rx="1.833" ry="2.986"/>
	<path fill="#FFFFFF" stroke="#000000" stroke-miterlimit="10" d="M22.476,103.813c0,0-17.476,6.988-13.143,9.041
		c2.672,1.267,9.047,0.753,13.895,0.889c3.011,0.085,5.432,0.42,6.009,1.588c1.508,3.047,2.708,8.909,0,10.312
		c-7.082,3.667-12.292-0.851-9.45-5.354l3.441-6.546"/>
	<path fill="#FFFFFF" stroke="#000000" stroke-miterlimit="10" d="M117.957,105.648c0,0,17.14,7.774,12.719,9.628
		c-2.728,1.145-9.072,0.342-13.921,0.258c-3.012-0.052-5.445,0.173-6.075,1.313c-1.646,2.976-3.11,8.777-0.468,10.302
		c6.907,3.985,12.316-0.292,9.684-4.919l-3.141-6.695"/>
</g>
</svg>
