<?xml version="1.0" encoding="utf-8"?>
<!-- Generator: Adobe Illustrator 16.0.0, SVG Export Plug-In . SVG Version: 6.00 Build 0)  -->
<!DOCTYPE svg PUBLIC "-//W3C//DTD SVG 1.1//EN" "http://www.w3.org/Graphics/SVG/1.1/DTD/svg11.dtd">
<svg version="1.1" id="Layer_1" xmlns="http://www.w3.org/2000/svg" xmlns:xlink="http://www.w3.org/1999/xlink" x="0px" y="0px"
	 width="140px" height="177.143px" viewBox="0 0 140 177.143" enable-background="new 0 0 140 177.143" xml:space="preserve">
<g>
	<path fill="none" stroke="#000000" stroke-miterlimit="10" d="M93.745,142.928c0,0,32.007,5.058,23.076,9.007
		c-8.93,3.949-27.168-0.333-28.584,0s1.951-0.102,2.602,3.949c0.648,4.051-16.498-6.479-16.498-6.479"/>
	<path fill="none" stroke="#000000" stroke-miterlimit="10" d="M45.077,142.993c0,0-32.006,5.059-23.077,9.008
		s27.168-0.334,28.584,0c1.416,0.333-1.951-0.102-2.601,3.949s16.497-6.479,16.497-6.479"/>
	<g>
		<path fill="none" stroke="#000000" stroke-miterlimit="10" d="M121.488,129.133c0,0-2.375,3.385-7.569,3.285
			c-5.193-0.101-8.935-2.62-8.935-2.62"/>
		<path fill="#FFFFFF" stroke="#000000" stroke-miterlimit="10" d="M127.24,129.659c-4.674,0.896-13.696-2.506-10.058-10.869
			c3.167-6.008,5.874-4.017,6.288-2.833s-2.232,3.186-2.088,5.659c0.145,2.475,5.328,3.299,5.682-0.353s-3.652-6.479-3.299-8.835
			c0.354-2.356,4.533-0.744,5.42-0.118C133.024,115.02,137.667,127.659,127.24,129.659z"/>
	</g>
	<g>
		<path fill="none" stroke="#000000" stroke-miterlimit="10" d="M19.367,132.42c0,0,2.375,3.385,7.569,3.284s8.935-2.62,8.935-2.62"
			/>
		<path fill="#FFFFFF" stroke="#000000" stroke-miterlimit="10" d="M13.616,132.946c4.674,0.896,13.695-2.506,10.057-10.87
			c-3.167-6.008-5.874-4.017-6.288-2.833s2.231,3.186,2.087,5.66s-5.327,3.299-5.681-0.354c-0.354-3.651,3.651-6.479,3.298-8.835
			s-4.532-0.743-5.419-0.118C7.832,118.306,3.189,130.946,13.616,132.946z"/>
	</g>
	<path fill="#CC6828" d="M20.629,86.331c3.161-39.473,30.581-71.67,48.554-72.556c19.552-3.798,50.918,39.894,50.097,74.1
		c-0.809,33.671-15.878,62.264-49.583,62.264C37.61,150.138,17.835,119.187,20.629,86.331z"/>
	<path fill="#F58941" d="M26.437,91.307c2.788-34.813,26.971-63.21,42.823-63.991c17.244-3.35,44.909,35.185,44.185,65.353
		c-0.714,29.696-14.005,54.915-43.731,54.915C41.414,147.583,23.973,120.286,26.437,91.307z"/>
	<path fill="none" stroke="#000000" stroke-miterlimit="10" d="M80.411,105.011c0,0,2.328-9.327,17.107-9.327"/>
	<path fill="none" stroke="#000000" stroke-miterlimit="10" d="M59.138,105.011c0,0-2.329-9.327-17.108-9.327"/>
	<g>
		<path fill="#C8C8C8" d="M65.507,88.649c0,0,2.052,3.258-2.033,4.973c-4.085,1.716-22.351-0.916-24.008-1.594
			c-1.658-0.678-9.038-28.883-8.255-29.486c1.808-1.394,8.703,14.194,10.757,17.452C44.021,83.252,65.507,88.649,65.507,88.649z"/>
		<path fill="#FFFFFF" d="M55.214,89.367c0,0,11.317,2.231,8.937,3.23s-23.146-0.866-24.112-1.262
			c-0.966-0.395-8.989-25.729-8.533-26.081c1.053-0.813,8.794,17.169,9.991,19.068S55.214,89.367,55.214,89.367z"/>
	</g>
	<g>
		<ellipse fill="#C8C8C8" cx="68.685" cy="146.777" rx="11.782" ry="19.431"/>
		<ellipse fill="#FFFFFF" cx="68.719" cy="144.777" rx="10.636" ry="19.431"/>
		<path fill="#C8C8C8" d="M77.167,152.093c-0.721,6.032-7.034,11.235-10.575,9.411c-3.541-1.825-7.958-10.947-6.422-19.014
			s3.361,4.647,3.361,4.647s1.44-6.856,1.44-8.873s1.321,7.778,1.621,9.315c0.3,1.535,2.7-8.035,2.604-9.588
			s1.537,11.567,1.537,11.567s2.496-0.192,2.496-4.783s0.674,1.843,1.057,3.476c0.385,1.633,2.881-6.627,2.881-6.627
			S77.888,146.061,77.167,152.093z"/>
	</g>
	<g>
		<path fill="#C8C8C8" d="M69.877,118.883c0,0,9.377-3.383,15.961,4.117s17.978,30.835,19.478,32.789S97.864,158,94.394,153.5
			s-5.471-23.324-10.971-25.662S73.308,125.5,71.366,123C69.423,120.5,69.877,118.883,69.877,118.883z"/>
		<path fill="#FFFFFF" d="M69.877,116.565c0,0,9.377-3.384,15.961,4.116s15.535,32.238,17.035,34.192s-5.01,0.808-8.48-3.692
			s-5.471-23.324-10.971-25.662s-10.115-2.338-12.057-4.838C69.423,118.181,69.877,116.565,69.877,116.565z"/>
	</g>
	<g>
		<path fill="#C8C8C8" d="M66.368,119.043c0,0-9.378-3.384-15.962,4.116s-17.977,30.835-19.477,32.79
			c-1.5,1.953,7.453,2.21,10.922-2.29c3.471-4.5,5.471-23.324,10.971-25.662s10.116-2.338,12.058-4.838
			C66.822,120.66,66.368,119.043,66.368,119.043z"/>
		<path fill="#FFFFFF" d="M66.368,116.725c0,0-9.378-3.385-15.962,4.115s-15.534,32.238-17.034,34.193
			c-1.5,1.953,5.01,0.807,8.479-3.693c3.471-4.5,5.471-23.324,10.971-25.662s10.116-2.338,12.058-4.838
			C66.822,118.34,66.368,116.725,66.368,116.725z"/>
	</g>
	<g>
		<path fill="#C8C8C8" d="M74.856,88.649c0,0-2.052,3.258,2.033,4.973c4.085,1.716,22.352-0.916,24.008-1.594
			c1.658-0.678,9.038-28.883,8.256-29.486c-1.809-1.394-8.703,14.194-10.757,17.452C96.343,83.252,74.856,88.649,74.856,88.649z"/>
		<path fill="#FFFFFF" d="M85.149,89.367c0,0-11.316,2.231-8.937,3.23s23.146-0.866,24.112-1.262
			c0.966-0.395,8.988-25.729,8.533-26.081c-1.054-0.813-8.795,17.169-9.991,19.068S85.149,89.367,85.149,89.367z"/>
	</g>
</g>
</svg>
