<!DOCTYPE svg  PUBLIC '-//W3C//DTD SVG 1.1//EN'  'http://www.w3.org/Graphics/SVG/1.1/DTD/svg11.dtd'>
<svg xmlns="http://www.w3.org/2000/svg" xml:space="preserve" height="283.46px" viewBox="0 0 283.464 283.464" width="283.46px" version="1.1" y="0px" x="0px" xmlns:xlink="http://www.w3.org/1999/xlink" enable-background="new 0 0 283.464 283.464">
	<path stroke="#000" stroke-miterlimit="10" d="m101.51 168.17s-10.208-4.945-13.733-2.69c-3.524 2.254 3.18 11.018 2.93 14.777-0.42 6.31-11.149 8.213-12.714 2.194-1.189-4.583-0.004-6.618 3.042-7.233 3.046-0.616 4.387 3.812 4.319 4.688" fill="none"/>
	<path stroke="#000" stroke-miterlimit="10" d="m186.98 163.45s10.557 4.152 13.898 1.637c3.344-2.517-4.01-10.744-4.047-14.512-0.061-6.323 10.492-9.039 12.51-3.156 1.537 4.479 0.51 6.598-2.48 7.443s-4.664-3.467-4.664-4.346" fill="none"/>
	<g stroke="#000" stroke-miterlimit="10" fill="#fff">
		<path d="m174.74 190.92s8.736 0.73 12.91 1.534c3.613 1.117 5.908 4.193 6.199 7.08 0.291 2.885 0.566 11.905 6.531 6.929 5.965-4.978 7.852-10.21 7.852-10.21"/>
		<path d="m121.19 195.57s-0.955 3.775-3.575 7.123c-2.642 2.706-6.426 3.346-9.127 2.289-2.701-1.059-10.854-4.928-9.146 2.65s5.503 11.643 5.503 11.643"/>
	</g>
	<path d="m94.158 141.33c3.16-39.473 30.58-71.67 48.554-72.556 19.552-3.798 50.919 39.894 50.097 74.1-0.809 33.671-15.877 62.264-49.582 62.264-32.09 0.01-51.866-30.94-49.072-63.8z" fill="#EE9255"/>
	<path d="m99.965 146.31c2.789-34.813 26.972-63.21 42.825-63.991 17.244-3.35 44.908 35.185 44.184 65.353-0.713 29.696-14.004 54.915-43.73 54.915-28.3 0-45.738-27.29-43.275-56.27z" fill="#FBB47D"/>
	<path d="m167.33 159.67" fill="#EDA569"/>
	<ellipse cy="148.01" cx="149.87" rx="1.834" ry="2.986"/>
	<ellipse cy="148.01" cx="173.84" rx="1.833" ry="2.986"/>
	<path d="m92.202 151.49c2.408 2.056 25.698-15.131 47.855-22.396 22.158-7.264 41.449-5.945 46.929 0 5.479 5.945 5.479 5.945 5.479 5.945s2.439-0.032 2.439-1.717-5.666-24.206-7.918-27.111-25.779-7.277-41.762-3.645c-15.981 3.632-50.102 16.572-52.271 22.17-1.843 10.72-3.165 24.7-0.757 26.76z" fill="#ABCB37"/>
	<path d="m94.853 142.35s27.084-14.821 48.035-20.014c20.949-5.193 38.238-1.497 43.42 2.754s5.182 4.25 5.182 4.25-0.223-0.506-0.223-1.71c0-1.205-2.83-16.823-4.959-18.9s-24.375-5.203-39.486-2.605c-15.111 2.597-49.424 15.851-51.475 19.853s-0.492 16.38-0.492 16.38z" fill="#DFE77F"/>
	<line y2="120.23" x2="138.09" stroke="#ABCB37" stroke-miterlimit="10" y1="107.52" x1="133.98" fill="none"/>
	<line y2="107.52" x2="140.49" stroke="#ABCB37" stroke-miterlimit="10" y1="126.33" x1="143.55" fill="none"/>
	<line y2="105.69" x2="149.87" stroke="#ABCB37" stroke-miterlimit="10" y1="123.74" x1="153" fill="none"/>
	<line y2="123.74" x2="159.33" stroke="#ABCB37" stroke-miterlimit="10" y1="105.69" x1="157" fill="none"/>
	<line y2="119.8" x2="162.35" stroke="#ABCB37" stroke-miterlimit="10" y1="103.67" x1="162.33" fill="none"/>
	<line y2="113.88" x2="172" stroke="#ABCB37" stroke-miterlimit="10" y1="102.99" x1="172" fill="none"/>
	<line y2="108.86" x2="175.67" stroke="#ABCB37" stroke-miterlimit="10" y1="120.62" x1="173.84" fill="none"/>
	<line y2="114.74" x2="182.67" stroke="#ABCB37" stroke-miterlimit="10" y1="125.19" x1="183.11" fill="none"/>
	<line y2="113.88" x2="123" stroke="#ABCB37" stroke-miterlimit="10" y1="129.33" x1="128" fill="none"/>
	<line y2="117.45" x2="115" stroke="#ABCB37" stroke-miterlimit="10" y1="129.33" x1="122.32" fill="none"/>
	<line y2="134.69" x2="110.15" stroke="#ABCB37" stroke-miterlimit="10" y1="120.23" x1="104.92" fill="none"/>
	<line y2="134.06" x2="111.51" stroke="#ABCB37" stroke-miterlimit="10" y1="120.23" x1="104.92" fill="none"/>
	<line y2="138.33" x2="107.53" stroke="#ABCB37" stroke-miterlimit="10" y1="121.6" x1="99.734" fill="none"/>
	<line y2="142.35" x2="98.6" stroke="#ABCB37" stroke-miterlimit="10" y1="129.33" x1="94.494" fill="none"/>
		<path d="m88.504 149.22s-10.586 5.551-8.307 7.544 6.451 1.96 6.499-2.505c0.048-4.47 1.808-5.04 1.808-5.04z" fill="#BAC0C0"/>
		<path opacity=".5" d="m84.189 152.29s-4.531 2.375-3.556 3.229 2.761 0.84 2.781-1.072c0.022-1.91 0.775-2.16 0.775-2.16z" fill="#fff"/>
		<path d="m87.867 132.49s-8.979-5.108-10.02-2.535c-1.039 2.573 0.489 5.582 4.671 3.553 4.181-2.03 5.349-1.02 5.349-1.02z" fill="#BAC0C0"/>
		<path opacity=".5" d="m83.45 130.78s-3.843-2.186-4.288-1.085c-0.445 1.102 0.209 2.39 1.998 1.521 1.79-0.87 2.29-0.44 2.29-0.44z" fill="#fff"/>
		<path d="m77.397 144.58s-5.166-0.014-4.984 1.362c0.181 1.376 1.586 2.31 2.907 0.396 1.321-1.91 2.077-1.76 2.077-1.76z" fill="#BAC0C0"/>
		<path opacity=".5" d="m75.056 144.92s-2.211-0.006-2.135 0.582c0.078 0.59 0.68 0.989 1.244 0.171 0.566-0.81 0.891-0.75 0.891-0.75z" fill="#fff"/>
		<path d="m201.21 132.61s10.244-6.158 10.762-3.175-1.678 6.53-5.518 4.25-5.24-1.08-5.24-1.08z" fill="#BAC0C0"/>
		<path opacity=".5" d="m206.08 130.52s4.385-2.636 4.605-1.359c0.223 1.277-0.717 2.794-2.361 1.818-1.64-0.97-2.24-0.46-2.24-0.46z" fill="#fff"/>
		<path d="m196.65 127.71s2.674-4.42 3.756-3.55c1.08 0.869 1.148 2.555-1.174 2.689-2.32 0.13-2.59 0.86-2.59 0.86z" fill="#BAC0C0"/>
		<path opacity=".5" d="m198.16 125.89s1.145-1.892 1.607-1.521c0.463 0.373 0.492 1.095-0.502 1.151-0.99 0.06-1.11 0.37-1.11 0.37z" fill="#fff"/>
		<ellipse ry="6.786" rx="3.022" stroke="#fff" transform="matrix(-.982 -.1887 .1887 -.982 293.68 367.91)" cy="169.97" cx="164.36" stroke-miterlimit="10" fill="#FAA21B"/>
</svg>
