<svg xmlns:rdf="http://www.w3.org/1999/02/22-rdf-syntax-ns#" xmlns="http://www.w3.org/2000/svg" enable-background="new 0 0 150 163.571" xml:space="preserve" height="163.57px" viewBox="0 0 150 163.571" width="150px" version="1.1" y="0px" x="0px" xmlns:cc="http://creativecommons.org/ns#" xmlns:dc="http://purl.org/dc/elements/1.1/">
	<path fill="#A2958D" d="m30.017 91.659c3.011-37.616 29.141-68.298 46.269-69.142 18.632-3.619 48.523 38.016 47.741 70.612-0.771 32.086-15.133 59.335-47.251 59.335-30.581 0-49.425-29.49-46.762-60.801z"/>
	<path fill="#C4C1BF" d="m24.137 92.619c3.012-37.615 29.142-68.298 46.269-69.142 18.633-3.619 48.524 38.017 47.741 70.612-0.771 32.087-15.132 59.336-47.25 59.336-30.582 0-49.425-29.49-46.763-60.801z"/>
		<text style="text-anchor:middle" transform="translate(74.226 100)" font-size="24">{{tomb.name}}</text>
			<text style="text-anchor:middle" fill="#7A7069" transform="translate(75.583 100)" font-size="24">{{tomb.name}}</text>
			<text style="text-anchor:middle" fill="#7A7069" transform="translate(74 120)" font-size="14">{{tomb.age}} days</text>
	<path fill="#4B6931" d="m14.248 151.86s-5.116-12.225-8.618-15.881c-3.502-3.658 6.713 6.838 8.464 9.762 1.751 2.923 2.335-8.387 1.751-12.07s2.043 8.589 2.918 10.916c0.875 2.326 2.919 8.454 3.502-2.344 0.583-10.797 1.46-4.428 2.043-1.484s1.46 16.493 1.751 9.719 1.167-20.238 1.167-20.238l2.043 12.632 2.334 4.8 3.502-14s-2.043 8.141 0 12.15 0.584 16.879 3.794 6.942 5.837-23.562 5.837-23.562 1.166 18.128 2.042 21.275 1.168 9.236 2.919 5.025c1.751-4.213 2.244-14.794 3.311-16.652 1.066-1.859 2.817 10.82 2.817 10.82s3.21 5.121 5.545-4.509 4.086-14.923 4.086-14.923-0.94 12.752 0 17.594 3.501 6.658 3.793-1.946 0-12.216 0-12.216 2.626 12.338 4.961 16 5.253-19.432 5.253-19.432 0.021 14.326 1.168 20.238 8.6-9.674 9.698-14.498c1.099-4.825-0.068 8.861 1.391 13.691s6.128 2.758 6.712 0 1.751-9.152 1.751-9.152-0.402 5.1 1.459 9.152 5.253-2.855 5.253-6.601-1.46-18.179 0-10.378 3.211 11.594 3.211 11.594v-12.259l2.84 17.644v-14.357s2.268 4.201 3.34 7.757 3.742 7.407 3.742 7.407 0.635-12.803 1.951-15.164c1.316-2.359-2.426-3.359 0 3.537 2.426 6.895 3.886 10.521 4.761 11.627s4.732 5.83 4.847-2.807 0.697-8.688 1.281-6.912c0.584 1.777 0 5.128 0 5.128s1.459 1.289 2.043 3.784 2.776 0.604 2.556-3.85 2.405 1.85 2.405 1.85l1.167 5.093-126.78-0.89z"/>
	<path fill="#9CBE58" d="m134.33 154.46s5.376-17.981 8.89-22.643c3.513-4.661-6.734 8.715-8.491 12.44-1.756 3.725-2.342-10.688-1.756-15.382s-2.05 10.945-2.928 13.911c-0.878 2.965-2.928 10.774-3.513-2.986s-1.465-5.643-2.05-1.891c-0.585 3.751-1.465 21.018-1.757 12.385-0.291-8.634-1.17-25.791-1.17-25.791l-2.05 16.097-2.342 6.116-3.513-17.841s2.05 10.375 0 15.485c-2.05 5.109-0.586 21.509-3.806 8.847-3.221-12.663-5.855-30.026-5.855-30.026s-1.17 23.102-2.049 27.113c-0.879 4.01-1.172 11.771-2.928 6.402-1.757-5.367-2.252-18.852-3.321-21.221-1.07-2.369-2.826 13.79-2.826 13.79s-3.221 6.526-5.563-5.746c-2.343-12.272-4.1-19.017-4.1-19.017s0.944 16.25 0 22.42c-0.943 6.171-3.512 8.484-3.805-2.48s0-15.567 0-15.567-2.634 15.724-4.977 20.391c-2.342 4.667-5.27-24.763-5.27-24.763s-0.021 18.256-1.172 25.791c-1.15 7.533-8.627-12.329-9.729-18.478-1.103-6.148 0.068 11.294-1.396 17.449-1.464 6.154-6.147 3.515-6.733 0s-1.756-11.664-1.756-11.664 0.403 6.499-1.464 11.664-5.27-3.64-5.27-8.412 1.465-23.167 0-13.226-3.222 14.775-3.222 14.775v-15.623l-2.849 22.485v-18.296s-2.274 5.353-3.351 9.884c-1.075 4.531-3.754 9.44-3.754 9.44s-0.637-16.317-1.957-19.324c-1.32-3.009 2.434-4.282 0 4.506-2.434 8.787-3.898 13.41-4.776 14.818-0.877 1.408-4.747 7.43-4.861-3.578-0.115-11.007-0.7-11.071-1.285-8.807-0.586 2.264 0 6.533 0 6.533s-1.464 1.643-2.05 4.823c-0.586 3.18-2.785 0.77-2.563-4.905 0.221-5.676-2.413 2.355-2.413 2.355l-1.171 6.491 126.96 1.27z"/>
</svg>
